<svg width="176" height="167" viewBox="0 0 176 167" fill="none" xmlns="http://www.w3.org/2000/svg">
<path d="M58.9219 59.3438L59.6719 48.6562C59.6719 45.4688 58.9375 43.1406 57.4688 41.6719L58.4062 40.6875C59.6875 41.9375 61.25 42.5625 63.0938 42.5625H79.6406C81.5156 42.5625 83.0781 41.9375 84.3281 40.6875L85.2656 41.6719C84.0469 42.8906 83.4375 44.4531 83.4375 46.3594V101.203C83.4375 103.078 84.0469 104.641 85.2656 105.891L84.3281 106.828C83.1094 105.609 81.5469 105 79.6406 105H63.0938C61.1875 105 59.625 105.609 58.4062 106.828L57.4688 105.891C58.6562 104.703 59.25 103.141 59.25 101.203L59.1562 85.4531C59.1562 83.5781 59.75 82.0312 60.9375 80.8125L60 79.875C58.8125 81.0625 57.25 81.6562 55.3125 81.6562H36.0938C34.1875 81.6562 32.625 81.0625 31.4062 79.875L30.4688 80.8125C30.5312 81.5312 30.5625 85.3125 30.5625 92.1562V113.297C30.5625 116.141 30.9219 120.172 31.6406 125.391C32.3594 130.609 32.7188 134.297 32.7188 136.453C32.7188 138.609 32.4531 140.078 31.9219 140.859C31.4219 141.641 30.8125 142.031 30.0938 142.031C29.375 142.031 28.75 141.641 28.2188 140.859C27.7188 140.109 27.4688 139.328 27.4688 138.516C27.4688 137.734 27.625 135.906 27.9375 133.031C28.875 124.344 29.3438 117.812 29.3438 113.438C29.3438 111.281 28.6875 109.406 27.375 107.812C24.8125 104.719 21.2969 103.172 16.8281 103.172C14.5469 103.172 12.625 103.703 11.0625 104.766C9.53125 105.828 8.76562 107.297 8.76562 109.172C8.76562 111.078 9.0625 113.859 9.65625 117.516C10.2812 121.172 10.5938 123.703 10.5938 125.109C10.5938 128.016 9.6875 129.469 7.875 129.469C7.03125 129.469 6.3125 129.141 5.71875 128.484C5.125 127.859 4.82812 126.812 4.82812 125.344C4.82812 123.906 5.32812 121.312 6.32812 117.562C7.35938 113.812 7.875 110.891 7.875 108.797V46.3594C7.875 44.3906 7.28125 42.8281 6.09375 41.6719L6.98438 40.6875C8.26562 41.9375 9.82812 42.5625 11.6719 42.5625H28.5C30.3438 42.5625 31.8906 41.9375 33.1406 40.6875L34.125 41.6719C32.6875 43.1094 31.9688 45.4531 31.9688 48.7031L32.6719 59.4844C32.6719 62.7031 31.9375 65.0469 30.4688 66.5156L31.4062 67.5C32.625 66.2812 34.1875 65.6719 36.0938 65.6719H55.5C57.4062 65.6719 58.9531 66.2812 60.1406 67.5L61.125 66.5156C59.6562 65.0156 58.9219 62.625 58.9219 59.3438Z" fill="#8E0E00"/>
<path d="M113.516 87.375C114.922 88.0625 115.625 89.3438 115.625 91.2188V101.203C115.625 103.109 116.234 104.672 117.453 105.891L116.516 106.828C115.297 105.609 113.734 105 111.828 105H95.5625C93.6562 105 92.0938 105.609 90.875 106.828L89.9375 105.891C91.1562 104.672 91.7656 103.109 91.7656 101.203V46.3594C91.7656 44.4531 91.1562 42.8906 89.9375 41.6719L90.875 40.6875C92.125 41.9375 93.6875 42.5625 95.5625 42.5625H111.828C113.703 42.5625 115.266 41.9375 116.516 40.6875L117.453 41.6719C116.234 42.8906 115.625 44.4531 115.625 46.3594V60.9375C115.625 62.8125 115.25 64.6094 114.5 66.3281L115.203 66.6094C115.922 64.9219 116.969 63.4219 118.344 62.1094L136.016 45.1875C136.734 44.5 137.172 43.875 137.328 43.3125C137.516 42.75 137.469 42 137.188 41.0625L138.828 40.4531C139.422 41.8594 140.656 42.5625 142.531 42.5625H166.062C167.812 42.5625 169.625 42.2188 171.5 41.5312L171.734 42.1875C169.984 42.8438 168.406 43.7969 167 45.0469L147.969 61.5938C146.594 62.8438 145.047 63.3594 143.328 63.1406L143.141 64.5938C144.828 64.75 146.203 65.625 147.266 67.2188L171.547 101.859C172.609 103.422 173.953 104.641 175.578 105.516L175.156 106.266C173.562 105.422 171.812 105 169.906 105H147.266C145.391 105 144.078 105.703 143.328 107.109L141.828 106.312C142.266 105.406 142.438 104.656 142.344 104.062C142.25 103.438 141.922 102.688 141.359 101.812L127.953 82.0312C126.922 80.4375 126.516 78.7812 126.734 77.0625L125.469 76.9219C125.25 78.6094 124.391 80.0625 122.891 81.2812L118.578 84.9844C117.766 85.6406 117.062 86.0312 116.469 86.1562C115.906 86.2812 115.172 86.1719 114.266 85.8281L113.516 87.375Z" fill="#8E0E00"/>
</svg>
