<svg width="142" height="119" viewBox="0 0 142 119" fill="none" xmlns="http://www.w3.org/2000/svg">
<path d="M110.456 72.816H109.304C106.808 72.816 105.208 73.264 104.504 74.16C103.864 75.056 103.544 76.496 103.544 78.48V79.92C103.928 79.728 104.248 79.472 104.504 79.152L111.992 86.64C111.608 89.648 110.52 91.92 108.728 93.456C106.936 94.992 104.824 95.76 102.392 95.76C99.96 95.76 97.464 94.896 94.904 93.168C92.344 94.896 89.848 95.76 87.416 95.76C83.96 95.76 80.792 94.128 77.912 90.864C75.032 87.664 73.368 84.336 72.92 80.88L75.608 79.152C75.928 79.728 76.632 80.016 77.72 80.016C78.808 80.016 79.64 79.6 80.216 78.768C80.856 77.872 81.208 77.008 81.272 76.176C81.4 75.344 81.464 74.224 81.464 72.816H80.408L75.608 67.056V60.048C78.232 60.048 80.088 60.144 81.176 60.336V42.096H80.408L75.608 36.336V22.8H102.872L107.672 28.56V40.272L110.072 37.488L108.536 36.336V22.8H133.496L138.296 28.56V42.096H133.304L118.904 58.896L121.112 61.296C124.632 62.128 127.352 64.208 129.272 67.536C131.192 70.8 132.152 74.48 132.152 78.576V79.92C132.6 79.728 132.952 79.472 133.208 79.152L135.8 80.88L140.6 86.64C140.28 89.84 139.096 92.144 137.048 93.552C135 95.024 131.8 95.76 127.448 95.76C123.096 95.76 119.16 93.872 115.64 90.096C112.184 86.384 110.456 81.616 110.456 75.792V72.816ZM86.552 63.216C87.192 62.832 87.96 62.064 88.856 60.912H91.352C92.184 62.064 92.984 62.832 93.752 63.216C95.16 61.36 97.176 60.336 99.8 60.144C100.76 60.08 102.328 60.048 104.504 60.048C106.744 60.048 108.376 60.08 109.4 60.144C112.152 60.336 114.232 61.36 115.64 63.216C116.216 62.96 116.888 62.352 117.656 61.392L110.168 53.616L127.16 33.648H130.808V25.488H111.128V33.648H116.792L99.704 53.424H96.152V33.648H100.184V25.488H78.296V33.648H84.056V61.104C85.016 61.616 85.848 62.32 86.552 63.216ZM102.104 62.352C100.952 62.352 100.056 62.416 99.416 62.544C98.84 62.608 98.072 62.992 97.112 63.696C96.152 64.4 95.288 65.456 94.52 66.864C92.92 66.544 91.448 65.424 90.104 63.504C88.76 65.232 87.288 66.352 85.688 66.864C84.92 65.456 84.056 64.4 83.096 63.696C82.136 62.992 81.336 62.608 80.696 62.544C80.12 62.416 79.288 62.352 78.2 62.352V64.752C82.296 64.752 84.344 67.44 84.344 72.816C84.344 74.8 84.216 76.432 83.96 77.712C83.768 78.928 83.16 80.08 82.136 81.168C81.112 82.192 79.64 82.704 77.72 82.704L76.28 82.32C77.56 85.52 79.576 87.12 82.328 87.12C85.08 87.12 87.576 86.128 89.816 84.144H90.392C92.632 86.128 95.096 87.12 97.784 87.12C100.536 87.12 102.616 85.52 104.024 82.32C103.704 82.576 103 82.704 101.912 82.704C100.824 82.704 99.8 82.448 98.84 81.936C97.944 81.36 97.304 80.56 96.92 79.536C96.28 77.808 95.96 75.568 95.96 72.816C95.96 67.44 98.008 64.752 102.104 64.752H107.096C111.256 64.752 113.336 67.44 113.336 72.816V75.312C113.336 83.184 116.664 87.12 123.32 87.12C126.712 87.12 129.08 86.544 130.424 85.392C131.704 84.368 132.44 83.344 132.632 82.32C132.248 82.576 131.768 82.704 131.192 82.704C128.568 82.704 126.84 81.808 126.008 80.016C125.176 78.224 124.76 75.696 124.76 72.432C124.76 67.696 122.872 64.72 119.096 63.504C117.88 65.232 116.472 66.352 114.872 66.864C114.04 65.456 113.144 64.4 112.184 63.696C111.224 62.992 110.424 62.608 109.784 62.544C109.144 62.416 108.248 62.352 107.096 62.352H102.104Z" fill="#8E0E00"/>
<path d="M39.456 72.816H38.304C35.808 72.816 34.208 73.264 33.504 74.16C32.864 75.056 32.544 76.496 32.544 78.48V79.92C32.928 79.728 33.248 79.472 33.504 79.152L40.992 86.64C40.608 89.648 39.52 91.92 37.728 93.456C35.936 94.992 33.824 95.76 31.392 95.76C28.96 95.76 26.464 94.896 23.904 93.168C21.344 94.896 18.848 95.76 16.416 95.76C12.96 95.76 9.792 94.128 6.912 90.864C4.032 87.664 2.368 84.336 1.92 80.88L4.608 79.152C4.928 79.728 5.632 80.016 6.72 80.016C7.808 80.016 8.64 79.6 9.216 78.768C9.856 77.872 10.208 77.008 10.272 76.176C10.4 75.344 10.464 74.224 10.464 72.816H9.408L4.608 67.056V60.048C7.232 60.048 9.088 60.144 10.176 60.336V42.096H9.408L4.608 36.336V22.8H31.872L36.672 28.56V40.272L39.072 37.488L37.536 36.336V22.8H62.496L67.296 28.56V42.096H62.304L47.904 58.896L50.112 61.296C53.632 62.128 56.352 64.208 58.272 67.536C60.192 70.8 61.152 74.48 61.152 78.576V79.92C61.6 79.728 61.952 79.472 62.208 79.152L64.8 80.88L69.6 86.64C69.28 89.84 68.096 92.144 66.048 93.552C64 95.024 60.8 95.76 56.448 95.76C52.096 95.76 48.16 93.872 44.64 90.096C41.184 86.384 39.456 81.616 39.456 75.792V72.816ZM15.552 63.216C16.192 62.832 16.96 62.064 17.856 60.912H20.352C21.184 62.064 21.984 62.832 22.752 63.216C24.16 61.36 26.176 60.336 28.8 60.144C29.76 60.08 31.328 60.048 33.504 60.048C35.744 60.048 37.376 60.08 38.4 60.144C41.152 60.336 43.232 61.36 44.64 63.216C45.216 62.96 45.888 62.352 46.656 61.392L39.168 53.616L56.16 33.648H59.808V25.488H40.128V33.648H45.792L28.704 53.424H25.152V33.648H29.184V25.488H7.296V33.648H13.056V61.104C14.016 61.616 14.848 62.32 15.552 63.216ZM31.104 62.352C29.952 62.352 29.056 62.416 28.416 62.544C27.84 62.608 27.072 62.992 26.112 63.696C25.152 64.4 24.288 65.456 23.52 66.864C21.92 66.544 20.448 65.424 19.104 63.504C17.76 65.232 16.288 66.352 14.688 66.864C13.92 65.456 13.056 64.4 12.096 63.696C11.136 62.992 10.336 62.608 9.696 62.544C9.12 62.416 8.288 62.352 7.2 62.352V64.752C11.296 64.752 13.344 67.44 13.344 72.816C13.344 74.8 13.216 76.432 12.96 77.712C12.768 78.928 12.16 80.08 11.136 81.168C10.112 82.192 8.64 82.704 6.72 82.704L5.28 82.32C6.56 85.52 8.576 87.12 11.328 87.12C14.08 87.12 16.576 86.128 18.816 84.144H19.392C21.632 86.128 24.096 87.12 26.784 87.12C29.536 87.12 31.616 85.52 33.024 82.32C32.704 82.576 32 82.704 30.912 82.704C29.824 82.704 28.8 82.448 27.84 81.936C26.944 81.36 26.304 80.56 25.92 79.536C25.28 77.808 24.96 75.568 24.96 72.816C24.96 67.44 27.008 64.752 31.104 64.752H36.096C40.256 64.752 42.336 67.44 42.336 72.816V75.312C42.336 83.184 45.664 87.12 52.32 87.12C55.712 87.12 58.08 86.544 59.424 85.392C60.704 84.368 61.44 83.344 61.632 82.32C61.248 82.576 60.768 82.704 60.192 82.704C57.568 82.704 55.84 81.808 55.008 80.016C54.176 78.224 53.76 75.696 53.76 72.432C53.76 67.696 51.872 64.72 48.096 63.504C46.88 65.232 45.472 66.352 43.872 66.864C43.04 65.456 42.144 64.4 41.184 63.696C40.224 62.992 39.424 62.608 38.784 62.544C38.144 62.416 37.248 62.352 36.096 62.352H31.104Z" fill="#8E0E00"/>
</svg>
