<svg width="486" height="143" viewBox="0 0 486 143" fill="none" xmlns="http://www.w3.org/2000/svg">
<path d="M115.296 64.0854L115.472 74.0658C115.472 77.5424 115.042 80.088 114.183 81.7026C113.376 83.239 112.223 84.3914 110.726 85.1596C109.02 86.045 106.755 86.6179 103.929 86.8783V90.5307L104.124 92.5424C104.124 92.9851 104.001 93.2065 103.753 93.2065C103.506 93.2065 103.382 92.7768 103.382 91.9174L103.499 88.7338C103.499 87.3276 103.063 86.6244 102.191 86.6244C101.514 86.6244 101.175 87.1778 101.175 88.2846C101.175 88.2846 101.208 88.851 101.273 89.9838C101.273 90.3744 101.351 90.9408 101.507 91.683C101.677 92.4382 101.761 92.9721 101.761 93.2846C101.761 93.5971 101.696 93.8575 101.566 94.0658C101.436 94.2742 101.247 94.3783 100.999 94.3783C100.752 94.3783 100.563 94.2677 100.433 94.0463C100.316 93.838 100.257 93.5841 100.257 93.2846C100.257 92.9851 100.342 92.4903 100.511 91.8002C100.693 91.1231 100.785 90.6869 100.785 90.4916C100.785 90.2963 100.785 90.0945 100.785 89.8862C100.785 89.6908 100.778 89.489 100.765 89.2807C100.752 89.0724 100.72 88.8119 100.667 88.4994C100.563 87.8484 100.251 87.5229 99.7299 87.5229C98.7664 87.5229 98.2846 88.4734 98.2846 90.3744V91.2729C98.2846 91.7546 98.4018 92.4578 98.6362 93.3823C98.8706 94.3067 98.9878 94.9708 98.9878 95.3744C98.9878 96.377 98.6622 96.8783 98.0112 96.8783C97.6857 96.8783 97.4253 96.7416 97.2299 96.4682C97.0477 96.1948 96.9565 95.8432 96.9565 95.4135C96.9565 94.9838 97.0607 94.2546 97.269 93.226C97.4904 92.1974 97.601 91.4161 97.601 90.8823V86.9955C93.9031 86.8263 91.1297 86.2859 89.2807 85.3744C86.0516 83.8119 84.3914 80.8432 84.3003 76.4682C84.2742 75.2573 84.2612 73.4539 84.2612 71.058L84.3003 62.0346C84.3003 61.2664 84.0464 60.6218 83.5385 60.101L83.9487 59.7104C84.4305 60.2052 85.075 60.4526 85.8823 60.4526H92.7964C93.5906 60.4526 94.2352 60.2052 94.7299 59.7104L95.1401 60.101C94.6453 60.6088 94.3979 61.2533 94.3979 62.0346L94.437 72.0737C94.437 74.0138 94.4891 75.2442 94.5932 75.7651C94.6974 76.2859 94.8081 76.7677 94.9253 77.2104C95.0555 77.6401 95.2052 77.9851 95.3745 78.2455C95.5568 78.5059 95.7846 78.7859 96.0581 79.0854C96.3315 79.3718 96.644 79.5932 96.9956 79.7494C97.8159 80.114 98.6167 80.2963 99.3979 80.2963C100.192 80.2963 100.804 80.2638 101.234 80.1987C101.677 80.1205 102.061 80.0033 102.386 79.8471C102.725 79.6778 103.024 79.502 103.285 79.3198C103.558 79.1244 103.786 78.8836 103.968 78.5971C104.164 78.2976 104.333 78.0177 104.476 77.7573C104.619 77.4838 104.73 77.1453 104.808 76.7416C104.899 76.338 104.971 75.9864 105.023 75.6869C105.075 75.3744 105.114 74.9838 105.14 74.5151C105.179 73.7989 105.199 72.9851 105.199 72.0737L105.238 62.0346C105.238 61.2403 104.997 60.5958 104.515 60.101L104.886 59.7104C105.381 60.2052 106.032 60.4526 106.839 60.4526H113.753C114.574 60.4526 115.225 60.2052 115.707 59.7104L116.097 60.101C115.563 60.6479 115.296 61.976 115.296 64.0854ZM104.398 96.9955C104.398 97.6075 104.183 97.9135 103.753 97.9135C103.324 97.9135 103.109 97.5945 103.109 96.9565C103.109 96.3315 103.2 95.7976 103.382 95.3549C103.578 94.9252 103.695 94.7104 103.734 94.7104C103.773 94.7104 103.845 94.8276 103.949 95.0619C104.248 95.739 104.398 96.3836 104.398 96.9955ZM124.3 86.1557L124.73 89.7299C124.73 90.5242 124.45 90.9213 123.89 90.9213C123.343 90.9213 123.07 90.5307 123.07 89.7494C123.07 89.3849 123.148 88.8445 123.304 88.1283C123.46 87.4122 123.539 86.7807 123.539 86.2338C123.539 85.6869 123.382 85.4135 123.07 85.4135C122.822 85.4135 122.64 85.6088 122.523 85.9994C122.406 86.377 122.347 86.8393 122.347 87.3862C122.347 87.9461 122.438 89.0073 122.621 90.5698C122.816 92.1453 122.914 93.3171 122.914 94.0854C122.914 94.8666 122.621 95.2573 122.035 95.2573C121.449 95.2573 121.156 94.8796 121.156 94.1244C121.156 93.3823 121.26 92.3471 121.468 91.019C121.677 89.7039 121.781 88.7143 121.781 88.0502L121.8 61.7221C121.8 60.9148 121.546 60.2638 121.039 59.769L121.429 59.3588C121.976 59.8796 122.627 60.1401 123.382 60.1401H139.906C140.101 60.1401 140.446 60.1336 140.941 60.1205C141.436 60.1075 142.022 60.114 142.699 60.1401C143.376 60.1661 144.066 60.1921 144.769 60.2182C145.485 60.2312 146.195 60.2963 146.898 60.4135C147.614 60.5307 148.298 60.6739 148.949 60.8432C149.6 60.9994 150.205 61.2338 150.765 61.5463C151.325 61.8588 151.813 62.2104 152.23 62.601C153.128 63.4604 153.578 64.5541 153.578 65.8823C153.578 67.2104 153.272 68.3692 152.66 69.3588C152.048 70.3354 151.188 70.8692 150.082 70.9604L150.121 71.351C150.889 71.2859 151.605 71.4682 152.269 71.8979C152.933 72.3145 153.473 72.8744 153.89 73.5776C154.763 75.0619 155.199 76.4421 155.199 77.7182C155.199 78.9942 155.01 80.0684 154.632 80.9408C154.268 81.8132 153.753 82.5359 153.089 83.1088C152.425 83.6817 151.69 84.1765 150.882 84.5932C150.075 85.0099 149.177 85.3224 148.187 85.5307C146.299 85.9474 144.424 86.1557 142.562 86.1557H124.3ZM131.078 76.019C131.585 76.5268 131.839 77.1843 131.839 77.9916C131.839 78.7989 131.585 79.4565 131.078 79.9643L131.468 80.3744C131.989 79.8536 132.64 79.5932 133.421 79.5932H141.097C141.188 79.5932 141.384 79.5997 141.683 79.6127C141.983 79.6127 142.191 79.6127 142.308 79.6127C142.438 79.5997 142.627 79.5802 142.874 79.5541C143.135 79.5281 143.324 79.4825 143.441 79.4174C143.571 79.3393 143.708 79.2416 143.851 79.1244C144.124 78.9291 144.261 78.5515 144.261 77.9916C144.261 77.4317 144.033 77.0151 143.578 76.7416C143.122 76.4682 142.601 76.3315 142.015 76.3315L133.421 76.3901C132.627 76.3901 131.976 76.1362 131.468 75.6283L131.078 76.019ZM134.925 69.6713L139.496 69.8666C141.058 69.8666 142.054 69.5867 142.484 69.0268C142.692 68.7533 142.796 68.4408 142.796 68.0893C142.796 67.7247 142.653 67.4382 142.367 67.2299C141.885 66.8914 141.253 66.7221 140.472 66.7221L133.421 66.7416C132.705 66.7416 132.087 66.4942 131.566 65.9994L131.195 66.3901C131.703 66.8979 131.957 67.5164 131.957 68.2455C131.957 68.9747 131.703 69.6062 131.195 70.1401L131.566 70.5112C132.139 69.9513 133.259 69.6713 134.925 69.6713ZM125.003 99.2612C125.147 99.795 125.251 100.244 125.316 100.609C125.381 100.986 125.414 101.416 125.414 101.898C125.414 102.393 125.192 102.64 124.749 102.64C124.307 102.64 124.085 102.321 124.085 101.683C124.085 101.032 124.183 100.329 124.378 99.5737C124.587 98.8184 124.71 98.3562 124.749 98.1869C124.789 98.3823 124.873 98.7403 125.003 99.2612ZM256.449 89.3198L256.585 87.4448C256.585 87.1192 256.429 86.8653 256.117 86.683C255.804 86.5138 255.466 86.4291 255.101 86.4291C254.736 86.4291 254.411 86.5268 254.124 86.7221C253.838 86.9174 253.695 87.1974 253.695 87.5619V92.0541C253.695 92.7052 253.832 93.6622 254.105 94.9252C254.378 96.1882 254.515 97.0867 254.515 97.6205C254.515 98.1674 254.398 98.6166 254.164 98.9682C253.929 99.3198 253.604 99.4955 253.187 99.4955C252.783 99.4955 252.477 99.3132 252.269 98.9487C252.061 98.5841 251.957 98.1088 251.957 97.5229C251.957 96.9369 252.106 95.9213 252.406 94.476C252.705 93.0307 252.855 91.9109 252.855 91.1166C252.855 87.9005 252.256 86.2924 251.058 86.2924C249.443 86.2924 248.636 86.2273 248.636 86.0971V86.1362C248.636 87.0346 248.832 88.3497 249.222 90.0815C249.626 91.8263 249.828 93.0763 249.828 93.8315C249.828 94.5867 249.691 95.2052 249.417 95.6869C249.144 96.1817 248.721 96.4291 248.148 96.4291C247.588 96.4291 247.145 96.1948 246.82 95.726C246.507 95.2573 246.351 94.6453 246.351 93.8901C246.351 93.1479 246.54 91.8653 246.917 90.0424C247.295 88.2325 247.484 86.8588 247.484 85.9213C244.398 84.9448 242.074 83.3497 240.511 81.1362C238.962 78.9226 238.187 76.1882 238.187 72.933C238.187 66.1882 241.585 61.9304 248.382 60.1596C250.583 59.5867 252.855 59.3002 255.199 59.3002C257.555 59.3002 259.554 59.4304 261.195 59.6908C262.848 59.9513 264.443 60.4135 265.98 61.0776C267.529 61.7286 268.845 62.5619 269.925 63.5776C271.019 64.5802 271.891 65.8823 272.542 67.4838C273.193 69.0724 273.519 70.8888 273.519 72.933C273.519 77.0997 272.347 80.3289 270.003 82.6205C267.66 84.8992 264.365 86.2989 260.121 86.8198C260.068 86.9109 260.042 87.0541 260.042 87.2494L260.14 88.3237C260.14 88.9877 259.958 89.3198 259.593 89.3198C259.229 89.3198 259.046 89.0007 259.046 88.3627L259.105 87.269C259.105 86.8783 258.825 86.683 258.265 86.683C258.213 86.8002 258.187 87.0216 258.187 87.3471L258.285 89.2416C258.285 89.6323 258.213 90.0099 258.07 90.3744C257.927 90.739 257.686 90.9213 257.347 90.9213C256.748 90.9213 256.449 90.3875 256.449 89.3198ZM249.066 72.9526C249.066 77.7182 251.332 80.101 255.863 80.101C260.394 80.101 262.66 77.7182 262.66 72.9526C262.66 70.7651 262.074 69.0919 260.902 67.933C259.73 66.7742 258.05 66.1948 255.863 66.1948C253.675 66.1948 251.996 66.7742 250.824 67.933C249.652 69.0919 249.066 70.7651 249.066 72.9526ZM285.98 92.2104L286.449 86.9174C286.449 86.5007 286.214 86.1557 285.746 85.8823C284.977 85.4526 284.04 85.2377 282.933 85.2377C281.449 85.2377 280.427 85.5307 279.867 86.1166C279.619 86.377 279.496 86.7546 279.496 87.2494C279.496 87.7573 279.645 88.6362 279.945 89.8862C280.244 91.1362 280.394 92.0151 280.394 92.5229C280.394 93.0437 280.296 93.4539 280.101 93.7533C279.919 94.0658 279.645 94.2221 279.281 94.2221C278.916 94.2221 278.636 94.0658 278.441 93.7533C278.246 93.4539 278.148 93.0437 278.148 92.5229C278.148 92.002 278.304 91.1036 278.617 89.8276C278.942 88.5515 279.105 87.588 279.105 86.9369L279.085 62.9916C279.085 61.4552 278.617 60.1726 277.679 59.144L278.089 58.7338C279.144 59.6713 280.427 60.1401 281.937 60.1401H287.777C288.61 60.1401 289.313 60.0424 289.886 59.8471C290.472 59.6388 290.941 59.2351 291.292 58.6362L291.937 58.9487C291.598 59.7559 291.429 60.5177 291.429 61.2338C291.429 61.8198 292.458 63.2911 294.515 65.6479C297.197 68.7208 298.923 70.7846 299.691 71.8393C300.459 72.894 300.96 73.7468 301.195 74.3979H302.367C301.729 73.4604 301.41 72.1388 301.41 70.433C301.41 69.6388 301.507 68.4539 301.703 66.8783C301.898 65.2898 301.996 64.0984 301.996 63.3041C301.996 61.1687 301.318 59.782 299.964 59.144L300.374 58.7338C301.429 59.6713 302.712 60.1401 304.222 60.1401H308.226C309.736 60.1401 311.019 59.6713 312.074 58.7338L312.464 59.144C311.54 60.1856 311.078 61.4682 311.078 62.9916L311.039 86.8393C311.039 87.3992 311.169 88.2325 311.429 89.3393C311.69 90.4591 311.82 91.2989 311.82 91.8588C311.82 92.6921 311.501 93.1088 310.863 93.1088C310.225 93.1088 309.906 92.6921 309.906 91.8588C309.906 91.3119 310.029 90.5046 310.277 89.4369C310.524 88.3823 310.648 87.6531 310.648 87.2494C310.648 86.8588 310.518 86.5789 310.257 86.4096C309.997 86.2403 309.743 86.1557 309.496 86.1557H301.781C300.687 86.1557 300.14 87.1518 300.14 89.144C300.14 89.9643 300.29 91.1492 300.589 92.6987C300.902 94.2612 301.058 95.4395 301.058 96.2338C301.058 97.3666 300.635 97.933 299.789 97.933C298.942 97.933 298.519 97.3601 298.519 96.2143C298.519 95.4851 298.682 94.4239 299.007 93.0307C299.346 91.6375 299.522 90.5893 299.535 89.8862L299.574 87.2885C299.613 86.0776 299.489 85.2898 299.203 84.9252L289.847 73.0698C289.6 72.7442 289.326 72.0671 289.027 71.0385L287.835 71.0776C288.513 71.7807 288.851 72.5619 288.851 73.4213V84.5737L289.222 94.4565C289.222 94.6648 289.157 94.8406 289.027 94.9838C288.91 95.1401 288.74 95.2182 288.519 95.2182C288.311 95.2182 288.135 95.127 287.992 94.9448C287.848 94.7755 287.777 94.5802 287.777 94.3588L288.011 86.8588C288.011 86.7026 287.953 86.5593 287.835 86.4291C287.718 86.2989 287.582 86.2338 287.425 86.2338C287.087 86.2338 286.917 86.4942 286.917 87.0151C286.917 87.5359 287.002 88.3888 287.171 89.5737C287.354 90.7586 287.445 91.5724 287.445 92.0151C287.445 93.0046 287.197 93.4994 286.703 93.4994C286.221 93.4994 285.98 93.0698 285.98 92.2104ZM316.546 65.1987L316.644 62.6987C316.644 61.2664 316.364 60.2768 315.804 59.7299L316.195 59.3393C316.716 59.8471 317.36 60.101 318.128 60.101H343.773C344.567 60.101 345.218 59.8471 345.726 59.3393L346.117 59.7299C345.622 60.2247 345.374 60.8757 345.374 61.683L345.277 64.183C345.277 65.5893 345.557 66.5724 346.117 67.1323L345.726 67.5424C345.14 66.9434 344.19 66.644 342.874 66.644L338.558 66.9174C337.191 66.9174 336.208 66.6179 335.609 66.019L335.199 66.4096C335.707 66.9044 335.96 67.5554 335.96 68.3627V84.5737C335.96 85.9278 336.078 87.9461 336.312 90.6283C336.559 93.3106 336.683 95.075 336.683 95.9213C336.683 97.4057 336.416 98.1479 335.882 98.1479C335.348 98.1479 335.082 97.6205 335.082 96.5658C335.082 95.5112 335.166 94.0789 335.335 92.269C335.518 90.4721 335.609 89.1179 335.609 88.2065C335.609 86.7872 335.329 86.0776 334.769 86.0776C334.496 86.0776 334.281 86.2403 334.124 86.5658C333.968 86.8914 333.89 87.2104 333.89 87.5229L334.339 91.6049C334.339 92.5424 334.072 93.0112 333.539 93.0112C333.265 93.0112 333.063 92.8744 332.933 92.601C332.803 92.3276 332.738 92.0086 332.738 91.644C332.738 91.2794 332.855 90.6804 333.089 89.8471C333.324 89.0268 333.441 88.3562 333.441 87.8354C333.441 87.3145 333.213 86.9174 332.757 86.644C332.315 86.3705 331.748 86.2338 331.058 86.2338C330.381 86.2338 329.671 86.3705 328.929 86.644C328.2 86.9174 327.555 87.3406 326.996 87.9135C326.436 88.4994 326.156 89.0724 326.156 89.6323C326.156 90.2052 326.24 90.8953 326.41 91.7026C326.592 92.5099 326.683 93.1804 326.683 93.7143C326.683 94.2612 326.442 94.5346 325.96 94.5346C325.414 94.5346 325.14 94.2416 325.14 93.6557C325.14 93.0828 325.244 92.3536 325.453 91.4682C325.661 90.5828 325.765 89.9187 325.765 89.476V84.3979C325.791 77.2625 325.804 71.9174 325.804 68.3627C325.804 67.5424 326.052 66.8914 326.546 66.4096L326.156 66.019C325.583 66.6049 324.632 66.8979 323.304 66.8979L319.105 66.644C317.764 66.644 316.794 66.9434 316.195 67.5424L315.804 67.1323C316.299 66.6375 316.546 65.9929 316.546 65.1987ZM333.382 95.9604C333.695 97.3927 333.851 98.6362 333.851 99.6908C333.851 100.147 333.688 100.374 333.363 100.374C333.037 100.374 332.874 100.166 332.874 99.7494C332.874 98.5776 333.044 97.3145 333.382 95.9604ZM344.886 87.4057L344.945 90.5112C344.945 91.1362 344.847 91.6049 344.652 91.9174C344.457 92.2429 344.222 92.4057 343.949 92.4057C343.402 92.4057 343.128 91.8783 343.128 90.8237C343.128 89.769 343.259 88.5971 343.519 87.308C343.779 86.032 344.007 85.1531 344.203 84.6713L353.578 61.6049C353.708 61.2664 353.773 60.9343 353.773 60.6088C353.773 60.2833 353.662 59.9643 353.441 59.6518L353.988 59.3002C354.365 59.8601 354.951 60.1401 355.746 60.1401H364.73C365.511 60.1401 366.091 59.8601 366.468 59.3002L367.035 59.6518C366.813 59.9643 366.703 60.2638 366.703 60.5502C366.703 60.8367 366.781 61.1817 366.937 61.5854L376.585 84.6908C376.885 85.42 377.347 85.9929 377.972 86.4096L377.738 86.7807C377.1 86.364 376.39 86.1557 375.609 86.1557H371.781C371.807 86.4421 371.82 86.644 371.82 86.7612C371.82 87.1908 371.644 87.4057 371.292 87.4057C371.136 87.4057 370.993 87.3406 370.863 87.2104C370.746 87.0932 370.687 86.9174 370.687 86.683C370.687 86.4617 370.7 86.2859 370.726 86.1557H368.363C367.79 86.1557 367.419 86.4682 367.249 87.0932C367.041 87.8614 366.937 88.7403 366.937 89.7299C366.937 90.7325 367.002 91.644 367.132 92.4643C367.263 93.2846 367.328 93.8445 367.328 94.144C367.328 94.4565 367.249 94.7039 367.093 94.8862C366.95 95.0815 366.768 95.1791 366.546 95.1791C366.325 95.1791 366.136 95.088 365.98 94.9057C365.824 94.7234 365.746 94.4695 365.746 94.144C365.746 93.8184 365.824 93.1869 365.98 92.2494C366.149 91.3119 366.234 90.6088 366.234 90.1401V84.6518C366.104 84.3002 366.039 83.9747 366.039 83.6752C366.039 83.3757 366.156 83.0567 366.39 82.7182L365.882 82.3471C365.492 82.907 364.906 83.1869 364.124 83.1869H356.097C355.316 83.1869 354.73 82.9135 354.339 82.3666L353.832 82.7182C354.079 83.0698 354.203 83.3953 354.203 83.6948C354.203 83.9942 354.157 84.3132 354.066 84.6518V84.6713C353.949 85.114 353.89 85.4526 353.89 85.6869C353.89 85.9213 354.02 86.2273 354.281 86.6049L353.773 86.976C353.382 86.4291 352.796 86.1557 352.015 86.1557H344.945C344.906 86.4031 344.886 86.8198 344.886 87.4057ZM358.109 77.7768H361.839C362.621 77.7768 363.324 77.9851 363.949 78.4018L364.203 78.0307C363.591 77.614 363.148 77.0346 362.874 76.2924L360.394 69.9448C360.108 69.2026 359.958 68.4474 359.945 67.6791H359.691C359.665 68.5385 359.535 69.2937 359.3 69.9448L357.054 76.2729C356.781 77.0281 356.345 77.614 355.746 78.0307L355.999 78.4213C356.611 77.9916 357.315 77.7768 358.109 77.7768ZM370.785 92.6205C370.785 91.7221 370.954 90.5958 371.292 89.2416C371.67 90.8041 371.859 91.8198 371.859 92.2885C371.859 92.9786 371.677 93.3237 371.312 93.3237C370.96 93.3237 370.785 93.0893 370.785 92.6205ZM391.371 95.9018L391.742 86.6244C387.77 86.0645 384.71 84.6323 382.562 82.3276C380.427 80.0229 379.359 76.8783 379.359 72.894C379.359 68.6492 380.752 65.3875 383.539 63.1088C386.611 60.5698 391.175 59.3002 397.23 59.3002C406.93 59.3002 412.354 62.0867 413.499 67.6596C413.656 68.4669 414.001 69.0854 414.535 69.5151L414.203 69.9448C413.578 69.476 412.901 69.2742 412.171 69.3393L404.652 69.808C403.779 69.8731 403.213 70.1921 402.953 70.7651L402.308 70.4526C402.438 70.1661 402.503 69.9187 402.503 69.7104C402.503 69.0333 402.276 68.4474 401.82 67.9526C401.377 67.4448 400.811 67.0671 400.121 66.8198C398.779 66.338 397.477 66.0971 396.214 66.0971C394.287 66.0971 392.783 66.7546 391.703 68.0698C390.635 69.3718 390.101 71.0711 390.101 73.1674C390.101 75.2507 390.707 76.9565 391.917 78.2846C393.141 79.5997 394.854 80.2573 397.054 80.2573C397.757 80.2573 398.539 80.088 399.398 79.7494C400.27 79.3979 401.039 78.8966 401.703 78.2455C402.38 77.5945 402.718 76.9044 402.718 76.1752C402.718 75.9669 402.647 75.7065 402.503 75.394L403.148 75.0619C403.46 75.6479 403.962 75.9669 404.652 76.019C405.355 76.0711 406.26 76.1427 407.367 76.2338C409.802 76.4552 411.494 76.5658 412.445 76.5658C413.395 76.5658 414.144 76.364 414.691 75.9604L415.003 76.3705C414.522 76.7351 414.157 77.4122 413.91 78.4018C413.675 79.3783 413.213 80.3224 412.523 81.2338C411.833 82.1323 411.052 82.8809 410.179 83.4799C409.32 84.0658 408.317 84.5802 407.171 85.0229C405.205 85.8041 403.05 86.3575 400.707 86.683C400.707 87.8809 400.863 89.6583 401.175 92.0151C401.488 94.3718 401.644 95.9408 401.644 96.7221C401.644 97.5033 401.546 98.0502 401.351 98.3627C401.169 98.6752 400.895 98.8315 400.531 98.8315C400.166 98.8315 399.886 98.6752 399.691 98.3627C399.496 98.0502 399.398 97.5489 399.398 96.8588C399.398 96.1817 399.502 94.8601 399.71 92.894C399.932 90.9278 400.042 89.6127 400.042 88.9487C400.042 88.2846 400.01 87.8354 399.945 87.601C399.88 87.3666 399.802 87.1843 399.71 87.0541C399.619 86.9369 399.463 86.8458 399.242 86.7807C398.734 86.6505 398.122 86.6179 397.406 86.683C395.973 86.8002 395.257 87.0411 395.257 87.4057L395.726 92.7182C395.726 93.5645 395.479 93.9877 394.984 93.9877C394.489 93.9877 394.242 93.6296 394.242 92.9135C394.242 92.1974 394.326 91.2468 394.496 90.0619C394.678 88.877 394.769 88.0242 394.769 87.5033C394.769 86.9955 394.6 86.7416 394.261 86.7416C393.597 86.7416 393.148 86.8132 392.914 86.9565C392.692 87.0997 392.582 87.2299 392.582 87.3471L392.796 95.8041C392.796 96.0255 392.725 96.2208 392.582 96.3901C392.438 96.5724 392.263 96.6635 392.054 96.6635C391.846 96.6635 391.677 96.5854 391.546 96.4291C391.429 96.2859 391.371 96.1101 391.371 95.9018ZM417.757 65.1987L417.855 62.6987C417.855 61.2664 417.575 60.2768 417.015 59.7299L417.406 59.3393C417.927 59.8471 418.571 60.101 419.339 60.101H444.984C445.778 60.101 446.429 59.8471 446.937 59.3393L447.328 59.7299C446.833 60.2247 446.585 60.8757 446.585 61.683L446.488 64.183C446.488 65.5893 446.768 66.5724 447.328 67.1323L446.937 67.5424C446.351 66.9434 445.401 66.644 444.085 66.644L439.769 66.9174C438.402 66.9174 437.419 66.6179 436.82 66.019L436.41 66.4096C436.917 66.9044 437.171 67.5554 437.171 68.3627V84.5737C437.171 85.9278 437.289 87.9461 437.523 90.6283C437.77 93.3106 437.894 95.075 437.894 95.9213C437.894 97.4057 437.627 98.1479 437.093 98.1479C436.559 98.1479 436.292 97.6205 436.292 96.5658C436.292 95.5112 436.377 94.0789 436.546 92.269C436.729 90.4721 436.82 89.1179 436.82 88.2065C436.82 86.7872 436.54 86.0776 435.98 86.0776C435.707 86.0776 435.492 86.2403 435.335 86.5658C435.179 86.8914 435.101 87.2104 435.101 87.5229L435.55 91.6049C435.55 92.5424 435.283 93.0112 434.749 93.0112C434.476 93.0112 434.274 92.8744 434.144 92.601C434.014 92.3276 433.949 92.0086 433.949 91.644C433.949 91.2794 434.066 90.6804 434.3 89.8471C434.535 89.0268 434.652 88.3562 434.652 87.8354C434.652 87.3145 434.424 86.9174 433.968 86.644C433.526 86.3705 432.959 86.2338 432.269 86.2338C431.592 86.2338 430.882 86.3705 430.14 86.644C429.411 86.9174 428.766 87.3406 428.207 87.9135C427.647 88.4994 427.367 89.0724 427.367 89.6323C427.367 90.2052 427.451 90.8953 427.621 91.7026C427.803 92.5099 427.894 93.1804 427.894 93.7143C427.894 94.2612 427.653 94.5346 427.171 94.5346C426.624 94.5346 426.351 94.2416 426.351 93.6557C426.351 93.0828 426.455 92.3536 426.664 91.4682C426.872 90.5828 426.976 89.9187 426.976 89.476V84.3979C427.002 77.2625 427.015 71.9174 427.015 68.3627C427.015 67.5424 427.263 66.8914 427.757 66.4096L427.367 66.019C426.794 66.6049 425.843 66.8979 424.515 66.8979L420.316 66.644C418.975 66.644 418.005 66.9434 417.406 67.5424L417.015 67.1323C417.51 66.6375 417.757 65.9929 417.757 65.1987ZM434.593 95.9604C434.906 97.3927 435.062 98.6362 435.062 99.6908C435.062 100.147 434.899 100.374 434.574 100.374C434.248 100.374 434.085 100.166 434.085 99.7494C434.085 98.5776 434.255 97.3145 434.593 95.9604ZM463.421 91.8588L463.617 89.8862V86.2338C460.114 86.0515 457.497 85.5763 455.765 84.808C454.033 84.0268 452.757 83.0502 451.937 81.8783C451.442 81.1882 451.058 80.42 450.785 79.5737C450.524 78.7143 450.088 78.0698 449.476 77.6401L449.769 77.2299C450.355 77.6205 450.986 77.8158 451.664 77.8158C452.354 77.8158 453.233 77.7898 454.3 77.7377C455.368 77.6856 456.572 77.627 457.914 77.5619C459.255 77.4838 460.212 77.4317 460.785 77.4057C461.358 77.3796 461.781 77.3015 462.054 77.1713C462.328 77.0281 462.523 76.7742 462.64 76.4096L463.519 76.7026C463.48 76.8067 463.46 76.9434 463.46 77.1127C463.46 77.5424 463.818 78.0307 464.535 78.5776C465.251 79.1244 466.546 79.3979 468.421 79.3979C469.684 79.3979 470.583 79.183 471.117 78.7533C471.351 78.558 471.468 78.3237 471.468 78.0502C471.468 77.4122 471.117 76.989 470.414 76.7807C469.71 76.5724 468.858 76.3966 467.855 76.2533C466.865 76.0971 465.869 75.9734 464.867 75.8823C463.877 75.7911 462.803 75.6609 461.644 75.4916C460.485 75.3224 459.391 75.1401 458.363 74.9448C457.334 74.7364 456.332 74.4369 455.355 74.0463C454.391 73.6557 453.565 73.2 452.874 72.6791C452.184 72.1453 451.624 71.4682 451.195 70.6479C450.778 69.8145 450.57 68.8705 450.57 67.8158C450.57 66.7612 450.733 65.7976 451.058 64.9252C451.397 64.0528 451.852 63.3041 452.425 62.6791C452.998 62.0541 453.688 61.5007 454.496 61.019C455.316 60.5372 456.169 60.1466 457.054 59.8471C457.953 59.5476 458.929 59.3067 459.984 59.1244C461.82 58.7859 463.552 58.6166 465.179 58.6166C466.807 58.6166 468.044 58.6427 468.89 58.6948C469.749 58.7338 470.752 58.8184 471.898 58.9487C473.057 59.0658 474.098 59.2677 475.023 59.5541C475.96 59.8276 476.885 60.1791 477.796 60.6088C479.697 61.4942 481.032 62.8679 481.8 64.7299C482.113 65.394 482.542 66.0125 483.089 66.5854L482.835 67.0346C482.289 66.657 481.657 66.4682 480.941 66.4682H480.687C479.645 66.5073 478.154 66.5854 476.214 66.7026C474.287 66.8067 473.044 66.8718 472.484 66.8979C471.937 66.9239 471.54 67.002 471.292 67.1323C471.058 67.2625 470.889 67.5099 470.785 67.8744L469.925 67.6401C469.964 67.5229 469.984 67.3992 469.984 67.269C469.984 66.7221 469.541 66.2533 468.656 65.8627C467.77 65.4591 466.768 65.2573 465.648 65.2573C463.46 65.2573 462.367 65.6869 462.367 66.5463C462.367 67.3145 464.007 67.8744 467.289 68.226C468.057 68.3171 468.929 68.4083 469.906 68.4994C473.304 68.851 475.908 69.3132 477.718 69.8862C481.52 71.0841 483.421 73.3692 483.421 76.7416C483.421 78.1218 483.135 79.3653 482.562 80.4721C481.989 81.5658 481.24 82.4578 480.316 83.1479C479.404 83.838 478.324 84.4109 477.074 84.8666C474.821 85.6869 472.249 86.0971 469.359 86.0971C468.578 86.0971 468.115 86.0906 467.972 86.0776C467.269 86.0776 466.917 86.6179 466.917 87.6987V88.1674C466.917 88.519 467.002 89.0333 467.171 89.7104C467.354 90.4005 467.445 90.9148 467.445 91.2533C467.445 91.9434 467.204 92.2885 466.722 92.2885C466.475 92.2885 466.279 92.1843 466.136 91.976C466.006 91.7677 465.941 91.5073 465.941 91.1948C465.941 90.8823 466.019 90.3484 466.175 89.5932C466.345 88.851 466.429 88.3106 466.429 87.9721C466.429 87.6336 466.423 87.3927 466.41 87.2494C466.41 87.1192 466.39 86.95 466.351 86.7416C466.325 86.5463 466.273 86.4031 466.195 86.3119C466.013 86.0776 465.7 85.9604 465.257 85.9604C464.45 85.9604 464.046 86.6635 464.046 88.0698L464.164 91.2729C464.164 92.1323 464.04 92.5619 463.792 92.5619C463.545 92.5619 463.421 92.3276 463.421 91.8588Z" fill="white"/>
<path d="M58.9219 59.3438L59.6719 48.6562C59.6719 45.4688 58.9375 43.1406 57.4688 41.6719L58.4062 40.6875C59.6875 41.9375 61.25 42.5625 63.0938 42.5625H79.6406C81.5156 42.5625 83.0781 41.9375 84.3281 40.6875L85.2656 41.6719C84.0469 42.8906 83.4375 44.4531 83.4375 46.3594V101.203C83.4375 103.078 84.0469 104.641 85.2656 105.891L84.3281 106.828C83.1094 105.609 81.5469 105 79.6406 105H63.0938C61.1875 105 59.625 105.609 58.4062 106.828L57.4688 105.891C58.6562 104.703 59.25 103.141 59.25 101.203L59.1562 85.4531C59.1562 83.5781 59.75 82.0312 60.9375 80.8125L60 79.875C58.8125 81.0625 57.25 81.6562 55.3125 81.6562H36.0938C34.1875 81.6562 32.625 81.0625 31.4062 79.875L30.4688 80.8125C30.5312 81.5312 30.5625 85.3125 30.5625 92.1562V113.297C30.5625 116.141 30.9219 120.172 31.6406 125.391C32.3594 130.609 32.7188 134.297 32.7188 136.453C32.7188 138.609 32.4531 140.078 31.9219 140.859C31.4219 141.641 30.8125 142.031 30.0938 142.031C29.375 142.031 28.75 141.641 28.2188 140.859C27.7188 140.109 27.4688 139.328 27.4688 138.516C27.4688 137.734 27.625 135.906 27.9375 133.031C28.875 124.344 29.3438 117.812 29.3438 113.438C29.3438 111.281 28.6875 109.406 27.375 107.812C24.8125 104.719 21.2969 103.172 16.8281 103.172C14.5469 103.172 12.625 103.703 11.0625 104.766C9.53125 105.828 8.76562 107.297 8.76562 109.172C8.76562 111.078 9.0625 113.859 9.65625 117.516C10.2812 121.172 10.5938 123.703 10.5938 125.109C10.5938 128.016 9.6875 129.469 7.875 129.469C7.03125 129.469 6.3125 129.141 5.71875 128.484C5.125 127.859 4.82812 126.812 4.82812 125.344C4.82812 123.906 5.32812 121.312 6.32812 117.562C7.35938 113.812 7.875 110.891 7.875 108.797V46.3594C7.875 44.3906 7.28125 42.8281 6.09375 41.6719L6.98438 40.6875C8.26562 41.9375 9.82812 42.5625 11.6719 42.5625H28.5C30.3438 42.5625 31.8906 41.9375 33.1406 40.6875L34.125 41.6719C32.6875 43.1094 31.9688 45.4531 31.9688 48.7031L32.6719 59.4844C32.6719 62.7031 31.9375 65.0469 30.4688 66.5156L31.4062 67.5C32.625 66.2812 34.1875 65.6719 36.0938 65.6719H55.5C57.4062 65.6719 58.9531 66.2812 60.1406 67.5L61.125 66.5156C59.6562 65.0156 58.9219 62.625 58.9219 59.3438Z" fill="#8E0E00"/>
<path d="M187.473 87.375C188.879 88.0625 189.582 89.3438 189.582 91.2188V101.203C189.582 103.109 190.192 104.672 191.41 105.891L190.473 106.828C189.254 105.609 187.692 105 185.785 105H169.52C167.613 105 166.051 105.609 164.832 106.828L163.895 105.891C165.113 104.672 165.723 103.109 165.723 101.203V46.3594C165.723 44.4531 165.113 42.8906 163.895 41.6719L164.832 40.6875C166.082 41.9375 167.645 42.5625 169.52 42.5625H185.785C187.66 42.5625 189.223 41.9375 190.473 40.6875L191.41 41.6719C190.192 42.8906 189.582 44.4531 189.582 46.3594V60.9375C189.582 62.8125 189.207 64.6094 188.457 66.3281L189.16 66.6094C189.879 64.9219 190.926 63.4219 192.301 62.1094L209.973 45.1875C210.692 44.5 211.129 43.875 211.285 43.3125C211.473 42.75 211.426 42 211.145 41.0625L212.785 40.4531C213.379 41.8594 214.613 42.5625 216.488 42.5625H240.02C241.77 42.5625 243.582 42.2188 245.457 41.5312L245.692 42.1875C243.942 42.8438 242.363 43.7969 240.957 45.0469L221.926 61.5938C220.551 62.8438 219.004 63.3594 217.285 63.1406L217.098 64.5938C218.785 64.75 220.16 65.625 221.223 67.2188L245.504 101.859C246.567 103.422 247.91 104.641 249.535 105.516L249.113 106.266C247.52 105.422 245.77 105 243.863 105H221.223C219.348 105 218.035 105.703 217.285 107.109L215.785 106.312C216.223 105.406 216.395 104.656 216.301 104.062C216.207 103.438 215.879 102.688 215.317 101.812L201.91 82.0312C200.879 80.4375 200.473 78.7812 200.692 77.0625L199.426 76.9219C199.207 78.6094 198.348 80.0625 196.848 81.2812L192.535 84.9844C191.723 85.6406 191.02 86.0312 190.426 86.1562C189.863 86.2812 189.129 86.1719 188.223 85.8281L187.473 87.375Z" fill="#8E0E00"/>
</svg>
