<svg width="485" height="74" viewBox="0 0 485 74" fill="none" xmlns="http://www.w3.org/2000/svg">
<path d="M38.456 50.816H37.304C34.808 50.816 33.208 51.264 32.504 52.16C31.864 53.056 31.544 54.496 31.544 56.48V57.92C31.928 57.728 32.248 57.472 32.504 57.152L39.992 64.64C39.608 67.648 38.52 69.92 36.728 71.456C34.936 72.992 32.824 73.76 30.392 73.76C27.96 73.76 25.464 72.896 22.904 71.168C20.344 72.896 17.848 73.76 15.416 73.76C11.96 73.76 8.79201 72.128 5.91201 68.864C3.03201 65.664 1.36801 62.336 0.920013 58.88L3.60801 57.152C3.92801 57.728 4.63201 58.016 5.72001 58.016C6.80801 58.016 7.64001 57.6 8.21601 56.768C8.85601 55.872 9.20801 55.008 9.27201 54.176C9.40001 53.344 9.46401 52.224 9.46401 50.816H8.40801L3.60801 45.056V38.048C6.23201 38.048 8.08801 38.144 9.17601 38.336V20.096H8.40801L3.60801 14.336V0.799995H30.872L35.672 6.56V18.272L38.072 15.488L36.536 14.336V0.799995H61.496L66.296 6.56V20.096H61.304L46.904 36.896L49.112 39.296C52.632 40.128 55.352 42.208 57.272 45.536C59.192 48.8 60.152 52.48 60.152 56.576V57.92C60.6 57.728 60.952 57.472 61.208 57.152L63.8 58.88L68.6 64.64C68.28 67.84 67.096 70.144 65.048 71.552C63 73.024 59.8 73.76 55.448 73.76C51.096 73.76 47.16 71.872 43.64 68.096C40.184 64.384 38.456 59.616 38.456 53.792V50.816ZM14.552 41.216C15.192 40.832 15.96 40.064 16.856 38.912H19.352C20.184 40.064 20.984 40.832 21.752 41.216C23.16 39.36 25.176 38.336 27.8 38.144C28.76 38.08 30.328 38.048 32.504 38.048C34.744 38.048 36.376 38.08 37.4 38.144C40.152 38.336 42.232 39.36 43.64 41.216C44.216 40.96 44.888 40.352 45.656 39.392L38.168 31.616L55.16 11.648H58.808V3.488H39.128V11.648H44.792L27.704 31.424H24.152V11.648H28.184V3.488H6.29601V11.648H12.056V39.104C13.016 39.616 13.848 40.32 14.552 41.216ZM30.104 40.352C28.952 40.352 28.056 40.416 27.416 40.544C26.84 40.608 26.072 40.992 25.112 41.696C24.152 42.4 23.288 43.456 22.52 44.864C20.92 44.544 19.448 43.424 18.104 41.504C16.76 43.232 15.288 44.352 13.688 44.864C12.92 43.456 12.056 42.4 11.096 41.696C10.136 40.992 9.33601 40.608 8.69601 40.544C8.12001 40.416 7.28801 40.352 6.20001 40.352V42.752C10.296 42.752 12.344 45.44 12.344 50.816C12.344 52.8 12.216 54.432 11.96 55.712C11.768 56.928 11.16 58.08 10.136 59.168C9.11201 60.192 7.64001 60.704 5.72001 60.704L4.28001 60.32C5.56001 63.52 7.57601 65.12 10.328 65.12C13.08 65.12 15.576 64.128 17.816 62.144H18.392C20.632 64.128 23.096 65.12 25.784 65.12C28.536 65.12 30.616 63.52 32.024 60.32C31.704 60.576 31 60.704 29.912 60.704C28.824 60.704 27.8 60.448 26.84 59.936C25.944 59.36 25.304 58.56 24.92 57.536C24.28 55.808 23.96 53.568 23.96 50.816C23.96 45.44 26.008 42.752 30.104 42.752H35.096C39.256 42.752 41.336 45.44 41.336 50.816V53.312C41.336 61.184 44.664 65.12 51.32 65.12C54.712 65.12 57.08 64.544 58.424 63.392C59.704 62.368 60.44 61.344 60.632 60.32C60.248 60.576 59.768 60.704 59.192 60.704C56.568 60.704 54.84 59.808 54.008 58.016C53.176 56.224 52.76 53.696 52.76 50.432C52.76 45.696 50.872 42.72 47.096 41.504C45.88 43.232 44.472 44.352 42.872 44.864C42.04 43.456 41.144 42.4 40.184 41.696C39.224 40.992 38.424 40.608 37.784 40.544C37.144 40.416 36.248 40.352 35.096 40.352H30.104Z" fill="#8E0E00"/>
<path d="M252.456 50.816H251.304C248.808 50.816 247.208 51.264 246.504 52.16C245.864 53.056 245.544 54.496 245.544 56.48V57.92C245.928 57.728 246.248 57.472 246.504 57.152L253.992 64.64C253.608 67.648 252.52 69.92 250.728 71.456C248.936 72.992 246.824 73.76 244.392 73.76C241.96 73.76 239.464 72.896 236.904 71.168C234.344 72.896 231.848 73.76 229.416 73.76C225.96 73.76 222.792 72.128 219.912 68.864C217.032 65.664 215.368 62.336 214.92 58.88L217.608 57.152C217.928 57.728 218.632 58.016 219.72 58.016C220.808 58.016 221.64 57.6 222.216 56.768C222.856 55.872 223.208 55.008 223.272 54.176C223.4 53.344 223.464 52.224 223.464 50.816H222.408L217.608 45.056V38.048C220.232 38.048 222.088 38.144 223.176 38.336V20.096H222.408L217.608 14.336V0.799995H244.872L249.672 6.56V18.272L252.072 15.488L250.536 14.336V0.799995H275.496L280.296 6.56V20.096H275.304L260.904 36.896L263.112 39.296C266.632 40.128 269.352 42.208 271.272 45.536C273.192 48.8 274.152 52.48 274.152 56.576V57.92C274.6 57.728 274.952 57.472 275.208 57.152L277.8 58.88L282.6 64.64C282.28 67.84 281.096 70.144 279.048 71.552C277 73.024 273.8 73.76 269.448 73.76C265.096 73.76 261.16 71.872 257.64 68.096C254.184 64.384 252.456 59.616 252.456 53.792V50.816ZM228.552 41.216C229.192 40.832 229.96 40.064 230.856 38.912H233.352C234.184 40.064 234.984 40.832 235.752 41.216C237.16 39.36 239.176 38.336 241.8 38.144C242.76 38.08 244.328 38.048 246.504 38.048C248.744 38.048 250.376 38.08 251.4 38.144C254.152 38.336 256.232 39.36 257.64 41.216C258.216 40.96 258.888 40.352 259.656 39.392L252.168 31.616L269.16 11.648H272.808V3.488H253.128V11.648H258.792L241.704 31.424H238.152V11.648H242.184V3.488H220.296V11.648H226.056V39.104C227.016 39.616 227.848 40.32 228.552 41.216ZM244.104 40.352C242.952 40.352 242.056 40.416 241.416 40.544C240.84 40.608 240.072 40.992 239.112 41.696C238.152 42.4 237.288 43.456 236.52 44.864C234.92 44.544 233.448 43.424 232.104 41.504C230.76 43.232 229.288 44.352 227.688 44.864C226.92 43.456 226.056 42.4 225.096 41.696C224.136 40.992 223.336 40.608 222.696 40.544C222.12 40.416 221.288 40.352 220.2 40.352V42.752C224.296 42.752 226.344 45.44 226.344 50.816C226.344 52.8 226.216 54.432 225.96 55.712C225.768 56.928 225.16 58.08 224.136 59.168C223.112 60.192 221.64 60.704 219.72 60.704L218.28 60.32C219.56 63.52 221.576 65.12 224.328 65.12C227.08 65.12 229.576 64.128 231.816 62.144H232.392C234.632 64.128 237.096 65.12 239.784 65.12C242.536 65.12 244.616 63.52 246.024 60.32C245.704 60.576 245 60.704 243.912 60.704C242.824 60.704 241.8 60.448 240.84 59.936C239.944 59.36 239.304 58.56 238.92 57.536C238.28 55.808 237.96 53.568 237.96 50.816C237.96 45.44 240.008 42.752 244.104 42.752H249.096C253.256 42.752 255.336 45.44 255.336 50.816V53.312C255.336 61.184 258.664 65.12 265.32 65.12C268.712 65.12 271.08 64.544 272.424 63.392C273.704 62.368 274.44 61.344 274.632 60.32C274.248 60.576 273.768 60.704 273.192 60.704C270.568 60.704 268.84 59.808 268.008 58.016C267.176 56.224 266.76 53.696 266.76 50.432C266.76 45.696 264.872 42.72 261.096 41.504C259.88 43.232 258.472 44.352 256.872 44.864C256.04 43.456 255.144 42.4 254.184 41.696C253.224 40.992 252.424 40.608 251.784 40.544C251.144 40.416 250.248 40.352 249.096 40.352H244.104Z" fill="#8E0E00"/>
<path d="M94.72 61.48C94.72 62.4133 94.96 63.0267 95.44 63.32L94.72 64.4C94.0267 64.4 93.2933 64.2267 92.52 63.88C91.7733 63.5333 91.1867 63.16 90.76 62.76C90.3067 63.16 89.5334 63.5333 88.44 63.88C87.3734 64.2267 86.36 64.4 85.4 64.4C83.4533 64.4 81.8667 63.88 80.64 62.84C79.5467 63.88 78.2933 64.4 76.88 64.4C75.4933 64.4 74.2 63.72 73 62.36C71.8267 61.0267 71.1467 59.64 70.96 58.2L72.08 57.48C72.2134 57.6933 72.48 57.8 72.88 57.8C73.9467 57.8 74.48 56.8133 74.48 54.84H74.08L72.08 52.44V49.52C73.2 49.52 73.9867 49.56 74.44 49.64V42.04H73.32L71.32 39.64V34H92.8L94.8 36.4V46.16H90.16L88.16 43.76V42.04H83.88V44.36H86.72L88.72 46.76V51.4H85.72L86.16 51.92V54.84C85.7333 54.8667 85.3867 54.9067 85.12 54.96C84.8533 54.9867 84.5733 55.12 84.28 55.36C83.9867 55.6 83.84 55.9467 83.84 56.4V56.56C84.2133 56.6933 84.7467 56.76 85.44 56.76C86.1333 56.76 86.7867 56.5467 87.4 56.12C88.0134 55.6933 88.32 55.0933 88.32 54.32C88.32 54.1867 88.24 53.8 88.08 53.16V51.88H92.72L94.72 54.28V61.48ZM76.64 50.84C76.9067 50.68 77.2267 50.36 77.6 49.88H78.68C79.0267 50.36 79.3333 50.68 79.6 50.84C79.8933 50.4667 80.2533 50.1733 80.68 49.96V47.88H85.6V45.48H80.68V38.52H89.28V42.64H91.68V35.12H72.44V38.52H75.64V50C75.9867 50.1867 76.32 50.4667 76.64 50.84ZM89.4 54.48C89.4 55.5467 88.9867 56.3867 88.16 57C87.36 57.6133 86.3733 57.92 85.2 57.92C84.0267 57.92 82.9733 57.5867 82.04 56.92C81.1333 56.2267 80.68 55.1867 80.68 53.8C80.68 53.32 80.8667 52.8267 81.24 52.32C81.64 51.7867 82.2667 51.52 83.12 51.52V50.56C82.64 50.56 82.2667 50.5867 82 50.64C81.76 50.6667 81.44 50.8267 81.04 51.12C80.64 51.3867 80.28 51.8 79.96 52.36C79.32 52.2267 78.7067 51.7733 78.12 51C77.64 51.6933 77.04 52.1467 76.32 52.36C75.9733 51.8 75.6 51.3867 75.2 51.12C74.8 50.8267 74.4667 50.6667 74.2 50.64C73.96 50.5867 73.6 50.56 73.12 50.56V51.52C74.0267 51.52 74.68 51.84 75.08 52.48C75.5067 53.0933 75.72 53.96 75.72 55.08C75.72 56.2 75.5333 57.12 75.16 57.84C74.8133 58.56 74.0667 58.92 72.92 58.92L72.36 58.84C72.84 60.2 73.68 60.88 74.88 60.88C76.08 60.88 77.2534 60.28 78.4 59.08H78.76L78.92 59.24C80.2 60.3067 81.7467 60.84 83.56 60.84C85.4 60.84 87.1334 60.2133 88.76 58.96C89 59.2 89.4933 59.5467 90.24 60C90.9867 60.4267 91.5733 60.68 92 60.76C91.76 60.4933 91.64 59.8 91.64 58.68V53.08H89.2C89.3333 53.5333 89.4 54 89.4 54.48Z" fill="white"/>
<path d="M121.21 63.2C120.863 63.36 120.637 63.76 120.53 64.4C119.303 64.4 117.943 63.76 116.45 62.48C115.73 61.8667 115.117 61 114.61 59.88C114.13 58.7333 113.89 57.4667 113.89 56.08V54.84H113.41L112.05 53.2V54.84C111.01 54.84 110.33 55.0267 110.01 55.4C109.717 55.7733 109.57 56.3733 109.57 57.2V57.8C109.757 57.8 109.917 57.6933 110.05 57.48L111.17 58.2L113.17 60.6C113.01 61.8533 112.557 62.8 111.81 63.44C111.063 64.08 110.157 64.4 109.09 64.4C108.05 64.4 107.023 64.04 106.01 63.32C104.997 64.04 103.943 64.4 102.85 64.4C101.783 64.4 100.557 63.76 99.17 62.48C97.7833 61.2 97.01 59.7733 96.85 58.2L97.97 57.48C98.0767 57.72 98.33 57.84 98.73 57.84C99.8767 57.84 100.45 56.84 100.45 54.84H99.97L97.97 52.44V49.52C99.0367 49.52 99.7833 49.5467 100.21 49.6V42.04H99.89L97.89 39.64V34H107.25L116.21 44.68V42.04H115.77L113.77 39.64V34H125.93L127.93 36.4V42.04H125.53V49.52H125.89L127.89 51.92V54.84C126.85 54.84 126.183 55.0267 125.89 55.4C125.597 55.7733 125.45 56.3733 125.45 57.2V57.8C125.637 57.7467 125.783 57.64 125.89 57.48L129.01 60.6C128.85 61.8533 128.383 62.8 127.61 63.44C126.863 64.08 126.09 64.4 125.29 64.4C124.49 64.4 123.717 64.28 122.97 64.04C122.223 63.8267 121.637 63.5467 121.21 63.2ZM102.53 50.84C102.797 50.68 103.117 50.36 103.49 49.88H104.53C104.877 50.36 105.197 50.68 105.49 50.84C105.783 50.4667 106.143 50.1733 106.57 49.96V42.32H107.69L113.53 49.6C114.623 49.7333 115.45 50.1467 116.01 50.84C116.277 50.68 116.597 50.36 116.97 49.88H120.29C120.637 50.36 120.97 50.68 121.29 50.84C121.637 50.4667 121.983 50.1867 122.33 50V38.52H124.81V35.12H114.89V38.52H117.29V46.92H115.93L106.01 35.12H99.01V38.52H101.41V49.92C101.837 50.1333 102.21 50.44 102.53 50.84ZM122.93 60.8C124.237 60.8 125.143 60.1333 125.65 58.8C125.49 58.9067 125.29 58.96 125.05 58.96C124.25 58.96 123.623 58.7467 123.17 58.32C122.743 57.8667 122.477 57.3867 122.37 56.88C122.29 56.3467 122.25 55.6667 122.25 54.84C122.25 52.6 123.117 51.48 124.85 51.48V50.48C124.37 50.48 123.997 50.5067 123.73 50.56C123.49 50.5867 123.157 50.7467 122.73 51.04C122.33 51.3333 121.957 51.7733 121.61 52.36C120.97 52.2267 120.37 51.76 119.81 50.96H117.45C116.89 51.7067 116.29 52.1733 115.65 52.36C115.303 51.7733 114.93 51.3333 114.53 51.04C114.13 50.7467 113.797 50.5867 113.53 50.56C113.29 50.5067 112.93 50.48 112.45 50.48V51.48C114.157 51.48 115.01 52.6 115.01 54.84V55.88C115.01 57.96 115.69 59.44 117.05 60.32C117.317 60.48 117.557 60.5867 117.77 60.64C117.983 59.8933 118.423 59.52 119.09 59.52C119.543 59.8933 120.17 60.2 120.97 60.44C121.77 60.68 122.423 60.8 122.93 60.8ZM104.13 59.56C105.09 60.3867 106.143 60.8 107.29 60.8C108.463 60.8 109.317 60.1333 109.85 58.8C109.663 58.9067 109.45 58.96 109.21 58.96C107.343 58.96 106.41 57.5867 106.41 54.84C106.41 52.6 107.29 51.48 109.05 51.48V50.48C108.543 50.48 108.157 50.5067 107.89 50.56C107.623 50.5867 107.29 50.7467 106.89 51.04C106.49 51.3333 106.13 51.7733 105.81 52.36C105.17 52.2267 104.57 51.76 104.01 50.96C103.45 51.68 102.85 52.1467 102.21 52.36C101.863 51.7733 101.49 51.3333 101.09 51.04C100.69 50.7467 100.357 50.5867 100.09 50.56C99.8233 50.5067 99.45 50.48 98.97 50.48V51.48C100.73 51.48 101.61 52.6 101.61 54.84C101.61 56.8667 101.183 58.1333 100.33 58.64C99.93 58.8533 99.4233 58.96 98.81 58.96L98.17 58.8C98.7033 60.1333 99.5433 60.8 100.69 60.8C101.863 60.8 102.93 60.3867 103.89 59.56H104.13ZM109.65 49.52H110.05L111.41 51.16V49.52H111.97L109.65 46.6V49.52Z" fill="white"/>
<path d="M138.089 42.04V46.16H133.449L131.449 43.76V34H153.049L155.049 36.4V42.04H152.369L147.049 51.36L147.529 51.92V54.8C147.076 54.8267 146.716 54.8667 146.449 54.92C146.183 54.9467 145.903 55.0933 145.609 55.36C145.343 55.6 145.209 55.9467 145.209 56.4V56.64C145.556 56.7733 146.076 56.84 146.769 56.84C147.489 56.84 148.156 56.6267 148.769 56.2C149.383 55.7467 149.689 55.12 149.689 54.32C149.689 53.9467 149.636 53.56 149.529 53.16V51.92H154.129L156.129 54.32V61.56C156.129 62.44 156.369 63.04 156.849 63.36L156.129 64.4C155.409 64.4 154.676 64.2267 153.929 63.88C153.209 63.56 152.649 63.2 152.249 62.8C150.783 63.8667 149.063 64.4 147.089 64.4C145.143 64.4 143.503 63.92 142.169 62.96C140.996 63.92 139.543 64.4 137.809 64.4C136.103 64.4 134.529 63.7467 133.089 62.44C131.649 61.16 130.929 59.76 130.929 58.24L132.209 57.48C132.263 57.7467 132.543 57.88 133.049 57.88C133.556 57.88 134.023 57.56 134.449 56.92C134.903 56.28 135.143 55.5733 135.169 54.8L133.169 52.4L133.609 49.52C135.236 49.52 136.329 49.6533 136.889 49.92L141.089 42.04H138.089ZM137.929 50.88C138.303 50.6933 138.703 50.36 139.129 49.88H140.129C140.423 50.4133 140.743 50.7467 141.089 50.88C141.703 50.08 142.503 49.64 143.489 49.56L149.609 38.52H151.889V35.12H132.569V42.64H134.969V38.52H144.289L137.809 50.68L137.929 50.88ZM150.649 53.04L150.849 54.52C150.849 55.5867 150.436 56.4267 149.609 57.04C148.783 57.6533 147.769 57.96 146.569 57.96C145.369 57.96 144.329 57.6267 143.449 56.96C142.596 56.2933 142.169 55.24 142.169 53.8C142.169 53.0533 142.396 52.48 142.849 52.08C143.329 51.68 143.863 51.48 144.449 51.48V50.52C143.996 50.52 143.649 50.5467 143.409 50.6C143.169 50.6267 142.849 50.7867 142.449 51.08C142.076 51.3733 141.743 51.8 141.449 52.36C140.543 52.1467 139.876 51.6933 139.449 51C138.809 51.6933 138.103 52.1467 137.329 52.36C137.116 51.8 136.836 51.3733 136.489 51.08C136.143 50.7867 135.836 50.6267 135.569 50.6C135.329 50.5467 134.969 50.52 134.489 50.52L134.289 51.48C135.783 51.72 136.529 52.6667 136.529 54.32C136.529 55.4667 136.169 56.5333 135.449 57.52C134.729 58.5067 133.849 59 132.809 59L132.209 58.84C132.316 59.4 132.743 59.8933 133.489 60.32C134.263 60.72 135.036 60.92 135.809 60.92C137.383 60.92 138.809 60.28 140.089 59L140.409 59.28C141.663 60.3733 143.196 60.92 145.009 60.92C146.823 60.92 148.569 60.28 150.249 59C150.463 59.24 150.916 59.5867 151.609 60.04C152.329 60.4667 152.903 60.7067 153.329 60.76C153.116 60.5467 153.009 59.8667 153.009 58.72V53.04H150.649Z" fill="white"/>
<path d="M174.291 42.04H171.891V49.52H172.211L174.211 51.92V54.84C173.171 54.84 172.491 55.0267 172.171 55.4C171.877 55.7733 171.731 56.3733 171.731 57.2V57.8C171.917 57.8 172.077 57.6933 172.211 57.48L173.331 58.2L175.331 60.6C175.171 61.8533 174.717 62.8 173.971 63.44C173.224 64.08 172.317 64.4 171.251 64.4C170.211 64.4 169.184 64.04 168.171 63.32C167.157 64.04 166.104 64.4 165.011 64.4C163.944 64.4 162.717 63.76 161.331 62.48C159.944 61.2 159.171 59.7733 159.011 58.2L160.131 57.48C160.237 57.72 160.491 57.84 160.891 57.84C162.037 57.84 162.611 56.84 162.611 54.84H162.131L160.131 52.44V49.52C161.224 49.52 161.997 49.56 162.451 49.64V42.04H162.131L160.131 39.64V34H172.291L174.291 36.4V42.04ZM164.691 50.84C164.957 50.68 165.277 50.36 165.651 49.88H166.691C167.037 50.36 167.357 50.68 167.651 50.84C167.917 50.4667 168.264 50.1733 168.691 49.96V38.52H171.171V35.12H161.251V38.52H163.651V49.96C164.024 50.1467 164.371 50.44 164.691 50.84ZM166.291 59.56C167.251 60.3867 168.304 60.8 169.451 60.8C170.624 60.8 171.477 60.1333 172.011 58.8C171.824 58.9067 171.611 58.96 171.371 58.96C169.504 58.96 168.571 57.5867 168.571 54.84C168.571 52.6 169.451 51.48 171.211 51.48V50.48C170.704 50.48 170.317 50.5067 170.051 50.56C169.784 50.5867 169.451 50.7467 169.051 51.04C168.651 51.3333 168.291 51.7733 167.971 52.36C167.331 52.2267 166.731 51.76 166.171 50.96C165.611 51.68 165.011 52.1467 164.371 52.36C164.024 51.7733 163.651 51.3333 163.251 51.04C162.851 50.7467 162.517 50.5867 162.251 50.56C161.984 50.5067 161.611 50.48 161.131 50.48V51.48C162.891 51.48 163.771 52.6 163.771 54.84C163.771 56.8667 163.344 58.1333 162.491 58.64C162.091 58.8533 161.584 58.96 160.971 58.96L160.331 58.8C160.864 60.1333 161.704 60.8 162.851 60.8C164.024 60.8 165.091 60.3867 166.051 59.56H166.291Z" fill="white"/>
<path d="M201.126 61.48C201.126 62.4133 201.366 63.0267 201.846 63.32L201.126 64.4C200.433 64.4 199.7 64.2267 198.926 63.88C198.18 63.5333 197.593 63.16 197.166 62.76C196.713 63.16 195.94 63.5333 194.846 63.88C193.78 64.2267 192.766 64.4 191.806 64.4C189.86 64.4 188.273 63.88 187.046 62.84C185.953 63.88 184.7 64.4 183.286 64.4C181.9 64.4 180.606 63.72 179.406 62.36C178.233 61.0267 177.553 59.64 177.366 58.2L178.486 57.48C178.62 57.6933 178.886 57.8 179.286 57.8C180.353 57.8 180.886 56.8133 180.886 54.84H180.486L178.486 52.44V49.52C179.606 49.52 180.393 49.56 180.846 49.64V42.04H179.726L177.726 39.64V34H199.206L201.206 36.4V46.16H196.566L194.566 43.76V42.04H190.286V44.36H193.126L195.126 46.76V51.4H192.126L192.566 51.92V54.84C192.14 54.8667 191.793 54.9067 191.526 54.96C191.26 54.9867 190.98 55.12 190.686 55.36C190.393 55.6 190.246 55.9467 190.246 56.4V56.56C190.62 56.6933 191.153 56.76 191.846 56.76C192.54 56.76 193.193 56.5467 193.806 56.12C194.42 55.6933 194.726 55.0933 194.726 54.32C194.726 54.1867 194.646 53.8 194.486 53.16V51.88H199.126L201.126 54.28V61.48ZM183.046 50.84C183.313 50.68 183.633 50.36 184.006 49.88H185.086C185.433 50.36 185.74 50.68 186.006 50.84C186.3 50.4667 186.66 50.1733 187.086 49.96V47.88H192.006V45.48H187.086V38.52H195.686V42.64H198.086V35.12H178.846V38.52H182.046V50C182.393 50.1867 182.726 50.4667 183.046 50.84ZM195.806 54.48C195.806 55.5467 195.393 56.3867 194.566 57C193.766 57.6133 192.78 57.92 191.606 57.92C190.433 57.92 189.38 57.5867 188.446 56.92C187.54 56.2267 187.086 55.1867 187.086 53.8C187.086 53.32 187.273 52.8267 187.646 52.32C188.046 51.7867 188.673 51.52 189.526 51.52V50.56C189.046 50.56 188.673 50.5867 188.406 50.64C188.166 50.6667 187.846 50.8267 187.446 51.12C187.046 51.3867 186.686 51.8 186.366 52.36C185.726 52.2267 185.113 51.7733 184.526 51C184.046 51.6933 183.446 52.1467 182.726 52.36C182.38 51.8 182.006 51.3867 181.606 51.12C181.206 50.8267 180.873 50.6667 180.606 50.64C180.366 50.5867 180.006 50.56 179.526 50.56V51.52C180.433 51.52 181.086 51.84 181.486 52.48C181.913 53.0933 182.126 53.96 182.126 55.08C182.126 56.2 181.94 57.12 181.566 57.84C181.22 58.56 180.473 58.92 179.326 58.92L178.766 58.84C179.246 60.2 180.086 60.88 181.286 60.88C182.486 60.88 183.66 60.28 184.806 59.08H185.166L185.326 59.24C186.606 60.3067 188.153 60.84 189.966 60.84C191.806 60.84 193.54 60.2133 195.166 58.96C195.406 59.2 195.9 59.5467 196.646 60C197.393 60.4267 197.98 60.68 198.406 60.76C198.166 60.4933 198.046 59.8 198.046 58.68V53.08H195.606C195.74 53.5333 195.806 54 195.806 54.48Z" fill="white"/>
<path d="M298.499 64.88C294.659 64.88 291.512 63.96 289.059 62.12C286.606 60.3067 285.379 58.0267 285.379 55.28V54.84H284.979L282.979 52.44V49.52C284.152 49.52 284.966 49.56 285.419 49.64V40.76C285.419 39.3733 285.752 38.1867 286.419 37.2C287.112 36.1867 288.032 35.4267 289.179 34.92C291.286 33.9867 293.726 33.52 296.499 33.52C300.392 33.52 303.539 34.4133 305.939 36.2C308.366 37.96 309.579 40.28 309.579 43.16V49.52H310.019L312.019 51.92V54.84C311.006 54.84 310.352 55.0267 310.059 55.4C309.766 55.7733 309.619 56.36 309.619 57.16V57.68C309.619 59.0667 309.272 60.2533 308.579 61.24C307.912 62.2267 306.992 62.9733 305.819 63.48C303.686 64.4133 301.246 64.88 298.499 64.88ZM287.499 50.84C287.819 50.6533 288.152 50.3333 288.499 49.88H289.499C289.846 50.36 290.166 50.68 290.459 50.84C290.939 50.28 291.486 49.92 292.099 49.76V41.88C292.099 40.52 292.512 39.4667 293.339 38.72C294.166 37.9467 295.232 37.56 296.539 37.56C297.846 37.56 298.899 37.9333 299.699 38.68C300.499 39.4267 300.899 40.4933 300.899 41.88V49.76C301.512 49.92 302.059 50.28 302.539 50.84C302.806 50.68 303.126 50.36 303.499 49.88H304.499C304.846 50.36 305.179 50.68 305.499 50.84C305.766 50.4933 306.072 50.2267 306.419 50.04V40.84C306.419 39.72 306.126 38.7467 305.539 37.92C304.952 37.0933 304.166 36.4533 303.179 36C302.192 35.5467 301.139 35.2133 300.019 35C298.899 34.7867 297.726 34.68 296.499 34.68C295.272 34.68 294.099 34.7867 292.979 35C291.886 35.2133 290.832 35.5467 289.819 36C288.832 36.4533 288.046 37.0933 287.459 37.92C286.872 38.7467 286.579 39.72 286.579 40.84V50.04C286.952 50.28 287.259 50.5467 287.499 50.84ZM291.859 60.76C293.272 61.1067 294.819 61.28 296.499 61.28C298.179 61.28 299.726 61.1067 301.139 60.76C302.552 60.4133 303.779 59.7733 304.819 58.84C305.886 57.88 306.419 56.68 306.419 55.24V54.84C306.419 52.6267 307.286 51.52 309.019 51.52V50.56C308.539 50.56 308.166 50.5867 307.899 50.64C307.659 50.6667 307.326 50.8267 306.899 51.12C306.499 51.3867 306.126 51.8 305.779 52.36C305.192 52.2267 304.606 51.7733 304.019 51C303.539 51.6933 302.926 52.1467 302.179 52.36C301.859 51.8 301.499 51.3867 301.099 51.12C300.699 50.8267 300.366 50.6667 300.099 50.64C299.832 50.5867 299.459 50.56 298.979 50.56V51.52C299.859 51.52 300.486 51.7733 300.859 52.28C301.232 52.7867 301.419 53.2933 301.419 53.8C301.419 55.24 300.952 56.3733 300.019 57.2C299.086 58 297.912 58.4 296.499 58.4C295.086 58.4 293.912 58 292.979 57.2C292.046 56.3733 291.579 55.24 291.579 53.8C291.579 53.2933 291.766 52.7867 292.139 52.28C292.512 51.7733 293.139 51.52 294.019 51.52V50.56C293.539 50.56 293.166 50.5867 292.899 50.64C292.632 50.6667 292.299 50.8267 291.899 51.12C291.499 51.3867 291.139 51.8 290.819 52.36C290.126 52.2267 289.512 51.7733 288.979 51C288.446 51.6933 287.859 52.1467 287.219 52.36C286.872 51.8 286.486 51.3867 286.059 51.12C285.659 50.8267 285.326 50.6667 285.059 50.64C284.819 50.5867 284.459 50.56 283.979 50.56V51.52C285.712 51.52 286.579 52.6267 286.579 54.84V55.24C286.579 56.68 287.099 57.88 288.139 58.84C289.206 59.7733 290.446 60.4133 291.859 60.76ZM295.259 44.32V49.72L297.099 51.92V54.84C296.646 54.8667 296.286 54.9067 296.019 54.96C295.752 54.9867 295.459 55.12 295.139 55.36C294.846 55.6 294.699 55.9467 294.699 56.4C294.699 56.96 295.232 57.24 296.299 57.24C297.366 57.24 298.219 57.0267 298.859 56.6C299.526 56.1467 299.966 55.56 300.179 54.84H299.899L297.899 52.44V49.52C298.752 49.52 299.366 49.5333 299.739 49.56V41.92C299.739 41.7067 299.592 41.5333 299.299 41.4C299.006 41.24 298.739 41.16 298.499 41.16C297.512 41.16 296.726 41.44 296.139 42C295.552 42.5333 295.259 43.3067 295.259 44.32Z" fill="white"/>
<path d="M337.304 63.2C336.957 63.36 336.73 63.76 336.624 64.4C335.397 64.4 334.037 63.76 332.544 62.48C331.824 61.8667 331.21 61 330.704 59.88C330.224 58.7333 329.984 57.4667 329.984 56.08V54.84H329.504L328.144 53.2V54.84C327.104 54.84 326.424 55.0267 326.104 55.4C325.81 55.7733 325.664 56.3733 325.664 57.2V57.8C325.85 57.8 326.01 57.6933 326.144 57.48L327.264 58.2L329.264 60.6C329.104 61.8533 328.65 62.8 327.904 63.44C327.157 64.08 326.25 64.4 325.184 64.4C324.144 64.4 323.117 64.04 322.104 63.32C321.09 64.04 320.037 64.4 318.944 64.4C317.877 64.4 316.65 63.76 315.264 62.48C313.877 61.2 313.104 59.7733 312.944 58.2L314.064 57.48C314.17 57.72 314.424 57.84 314.824 57.84C315.97 57.84 316.544 56.84 316.544 54.84H316.064L314.064 52.44V49.52C315.13 49.52 315.877 49.5467 316.304 49.6V42.04H315.984L313.984 39.64V34H323.344L332.304 44.68V42.04H331.864L329.864 39.64V34H342.024L344.024 36.4V42.04H341.624V49.52H341.984L343.984 51.92V54.84C342.944 54.84 342.277 55.0267 341.984 55.4C341.69 55.7733 341.544 56.3733 341.544 57.2V57.8C341.73 57.7467 341.877 57.64 341.984 57.48L345.104 60.6C344.944 61.8533 344.477 62.8 343.704 63.44C342.957 64.08 342.184 64.4 341.384 64.4C340.584 64.4 339.81 64.28 339.064 64.04C338.317 63.8267 337.73 63.5467 337.304 63.2ZM318.624 50.84C318.89 50.68 319.21 50.36 319.584 49.88H320.624C320.97 50.36 321.29 50.68 321.584 50.84C321.877 50.4667 322.237 50.1733 322.664 49.96V42.32H323.784L329.624 49.6C330.717 49.7333 331.544 50.1467 332.104 50.84C332.37 50.68 332.69 50.36 333.064 49.88H336.384C336.73 50.36 337.064 50.68 337.384 50.84C337.73 50.4667 338.077 50.1867 338.424 50V38.52H340.904V35.12H330.984V38.52H333.384V46.92H332.024L322.104 35.12H315.104V38.52H317.504V49.92C317.93 50.1333 318.304 50.44 318.624 50.84ZM339.024 60.8C340.33 60.8 341.237 60.1333 341.744 58.8C341.584 58.9067 341.384 58.96 341.144 58.96C340.344 58.96 339.717 58.7467 339.264 58.32C338.837 57.8667 338.57 57.3867 338.464 56.88C338.384 56.3467 338.344 55.6667 338.344 54.84C338.344 52.6 339.21 51.48 340.944 51.48V50.48C340.464 50.48 340.09 50.5067 339.824 50.56C339.584 50.5867 339.25 50.7467 338.824 51.04C338.424 51.3333 338.05 51.7733 337.704 52.36C337.064 52.2267 336.464 51.76 335.904 50.96H333.544C332.984 51.7067 332.384 52.1733 331.744 52.36C331.397 51.7733 331.024 51.3333 330.624 51.04C330.224 50.7467 329.89 50.5867 329.624 50.56C329.384 50.5067 329.024 50.48 328.544 50.48V51.48C330.25 51.48 331.104 52.6 331.104 54.84V55.88C331.104 57.96 331.784 59.44 333.144 60.32C333.41 60.48 333.65 60.5867 333.864 60.64C334.077 59.8933 334.517 59.52 335.184 59.52C335.637 59.8933 336.264 60.2 337.064 60.44C337.864 60.68 338.517 60.8 339.024 60.8ZM320.224 59.56C321.184 60.3867 322.237 60.8 323.384 60.8C324.557 60.8 325.41 60.1333 325.944 58.8C325.757 58.9067 325.544 58.96 325.304 58.96C323.437 58.96 322.504 57.5867 322.504 54.84C322.504 52.6 323.384 51.48 325.144 51.48V50.48C324.637 50.48 324.25 50.5067 323.984 50.56C323.717 50.5867 323.384 50.7467 322.984 51.04C322.584 51.3333 322.224 51.7733 321.904 52.36C321.264 52.2267 320.664 51.76 320.104 50.96C319.544 51.68 318.944 52.1467 318.304 52.36C317.957 51.7733 317.584 51.3333 317.184 51.04C316.784 50.7467 316.45 50.5867 316.184 50.56C315.917 50.5067 315.544 50.48 315.064 50.48V51.48C316.824 51.48 317.704 52.6 317.704 54.84C317.704 56.8667 317.277 58.1333 316.424 58.64C316.024 58.8533 315.517 58.96 314.904 58.96L314.264 58.8C314.797 60.1333 315.637 60.8 316.784 60.8C317.957 60.8 319.024 60.3867 319.984 59.56H320.224ZM325.744 49.52H326.144L327.504 51.16V49.52H328.064L325.744 46.6V49.52Z" fill="white"/>
<path d="M363.343 42.04V49.52H363.663L365.663 51.92V54.84C364.623 54.84 363.943 55.0267 363.623 55.4C363.33 55.7733 363.183 56.3733 363.183 57.2V57.8C363.37 57.8 363.53 57.6933 363.663 57.48L364.783 58.2L366.783 60.6C366.623 61.8533 366.17 62.8 365.423 63.44C364.676 64.08 363.77 64.4 362.703 64.4C361.663 64.4 360.636 64.04 359.623 63.32C358.61 64.04 357.556 64.4 356.463 64.4C355.396 64.4 354.17 63.76 352.783 62.48C351.396 61.2 350.623 59.7733 350.463 58.2L351.583 57.48C351.69 57.72 351.943 57.84 352.343 57.84C353.49 57.84 354.063 56.84 354.063 54.84H353.583L351.583 52.44V49.52C352.676 49.52 353.45 49.56 353.903 49.64V42.04H352.743V46.16H348.103L346.103 43.76V34H369.143L371.143 36.4V46.16H366.743L364.743 43.76V42.04H363.343ZM356.143 50.84C356.41 50.68 356.73 50.36 357.103 49.88H358.143C358.49 50.36 358.81 50.68 359.103 50.84C359.37 50.4667 359.716 50.1733 360.143 49.96V38.52H365.743V42.64H368.023V35.12H347.223V42.64H349.623V38.52H355.103V49.96C355.476 50.1467 355.823 50.44 356.143 50.84ZM357.743 59.56C358.703 60.3867 359.756 60.8 360.903 60.8C362.076 60.8 362.93 60.1333 363.463 58.8C363.276 58.9067 363.063 58.96 362.823 58.96C360.956 58.96 360.023 57.5867 360.023 54.84C360.023 52.6 360.903 51.48 362.663 51.48V50.48C362.156 50.48 361.77 50.5067 361.503 50.56C361.236 50.5867 360.903 50.7467 360.503 51.04C360.103 51.3333 359.743 51.7733 359.423 52.36C358.783 52.2267 358.183 51.76 357.623 50.96C357.063 51.68 356.463 52.1467 355.823 52.36C355.476 51.7733 355.103 51.3333 354.703 51.04C354.303 50.7467 353.97 50.5867 353.703 50.56C353.436 50.5067 353.063 50.48 352.583 50.48V51.48C354.343 51.48 355.223 52.6 355.223 54.84C355.223 56.8667 354.796 58.1333 353.943 58.64C353.543 58.8533 353.036 58.96 352.423 58.96L351.783 58.8C352.316 60.1333 353.156 60.8 354.303 60.8C355.476 60.8 356.543 60.3867 357.503 59.56H357.743Z" fill="white"/>
<path d="M376.883 34H396.483L398.483 36.4V41.96H396.403L397.883 49.56C398.123 49.5333 398.496 49.52 399.003 49.52L401.003 51.92L401.483 54.8C400.043 54.8 399.323 55.44 399.323 56.72C399.323 57.4933 399.416 57.88 399.603 57.88C400.056 57.88 400.309 57.7467 400.363 57.48L401.643 58.24L403.643 60.64C403.643 61.92 403.323 62.8667 402.683 63.48C402.069 64.0933 401.269 64.4 400.283 64.4C399.323 64.4 398.216 64.0667 396.963 63.4C395.976 64.0667 395.016 64.4 394.083 64.4C392.616 64.4 391.229 63.7467 389.923 62.44C388.643 61.1333 387.776 59.7333 387.323 58.24L388.283 57.48C388.496 57.7467 388.803 57.88 389.203 57.88C390.083 57.88 390.523 57.36 390.523 56.32L390.403 55.4C389.896 55.1333 389.269 55 388.523 55C387.803 55 387.109 55.2133 386.443 55.64C385.776 56.0667 385.323 56.68 385.083 57.48L386.043 58.24L388.043 60.64C387.669 61.8933 387.043 62.8267 386.163 63.44C385.309 64.08 384.389 64.4 383.403 64.4C382.443 64.4 381.429 64.0667 380.363 63.4C379.163 64.0667 378.056 64.4 377.043 64.4C375.656 64.4 374.429 63.7333 373.363 62.4C372.323 61.0667 371.803 59.68 371.803 58.24L373.043 57.48C373.096 57.7467 373.349 57.88 373.803 57.88C374.283 57.88 374.736 57.56 375.163 56.92C375.616 56.28 375.896 55.5733 376.003 54.8L373.883 52.4L374.363 49.52C375.509 49.52 376.376 49.6 376.963 49.76L378.562 41.6L376.883 39.56V34ZM391.723 50.88C391.963 50.6933 392.229 50.36 392.523 49.88H393.562C393.989 50.3867 394.376 50.72 394.723 50.88C394.829 50.6933 395.043 50.4667 395.363 50.2L393.083 38.4H395.363V35.12H378.003V38.4H380.283L377.963 50.2C378.283 50.44 378.523 50.6667 378.683 50.88C379.003 50.6933 379.376 50.36 379.803 49.88H380.842C381.056 50.3867 381.283 50.72 381.523 50.88C382.536 49.8667 384.243 49.36 386.643 49.36C389.069 49.36 390.763 49.8667 391.723 50.88ZM394.842 59.56C396.016 60.4667 397.136 60.92 398.203 60.92C399.296 60.92 400.016 60.2267 400.363 58.84C400.229 58.9467 400.043 59 399.803 59C398.789 59 397.923 58.5067 397.203 57.52C396.509 56.5067 396.163 55.5467 396.163 54.64C396.163 52.7467 396.896 51.6933 398.363 51.48L398.203 50.52C397.696 50.52 397.309 50.5467 397.043 50.6C396.803 50.6267 396.509 50.7867 396.163 51.08C395.816 51.3467 395.523 51.7733 395.283 52.36C394.669 52.2533 393.976 51.8 393.203 51C393.016 51.3467 392.789 51.64 392.523 51.88C392.283 52.0933 392.003 52.2533 391.683 52.36C390.643 51.08 388.963 50.44 386.643 50.44C384.323 50.44 382.669 51.08 381.683 52.36C381.069 52.2533 380.549 51.8 380.123 51C379.483 51.6933 378.816 52.1467 378.123 52.36C377.883 51.7733 377.576 51.3467 377.203 51.08C376.856 50.7867 376.549 50.6267 376.283 50.6C376.016 50.5467 375.643 50.52 375.163 50.52L375.003 51.48C375.749 51.5867 376.296 51.9067 376.643 52.44C377.016 52.9467 377.203 53.6667 377.203 54.6C377.203 55.5333 376.843 56.5067 376.123 57.52C375.429 58.5067 374.589 59 373.603 59L373.043 58.84C373.389 60.2267 374.083 60.92 375.123 60.92C376.189 60.92 377.323 60.4667 378.523 59.56H378.763C379.669 60.4667 380.576 60.92 381.483 60.92C382.683 60.92 383.723 60.2267 384.603 58.84C384.389 58.9467 384.149 59 383.883 59C382.389 59 381.643 58.2267 381.643 56.68C381.643 55.1333 382.149 53.92 383.163 53.04C384.176 52.1333 385.349 51.68 386.683 51.68C388.016 51.68 389.189 52.1333 390.203 53.04C391.216 53.92 391.723 55.1333 391.723 56.68C391.723 58.2267 390.976 59 389.483 59L388.723 58.84C389.576 60.2267 390.629 60.92 391.883 60.92C392.816 60.92 393.723 60.4667 394.603 59.56H394.842ZM383.043 48.4L385.203 38.4H388.163L390.403 48.4H383.043ZM387.963 42.6L386.923 47.36H389.043L387.963 42.6Z" fill="white"/>
<path d="M423.149 50.88C423.442 50.6933 423.762 50.36 424.109 49.88H425.149C425.496 50.3867 425.816 50.72 426.109 50.88C426.589 50.2667 427.136 49.8933 427.749 49.76C428.389 49.6 429.362 49.52 430.669 49.52L432.669 51.92V54.8C431.629 54.8 430.962 55 430.669 55.4C430.376 55.8 430.229 56.4267 430.229 57.28V57.68C430.229 59.0667 429.896 60.2533 429.229 61.24C428.589 62.2267 427.709 62.9733 426.589 63.48C424.536 64.4133 422.149 64.88 419.429 64.88C416.096 64.88 413.216 64.16 410.789 62.72C409.536 62 408.522 61 407.749 59.72C407.002 58.44 406.629 56.96 406.629 55.28V54.8H406.189L404.189 52.4V49.52C405.336 49.52 406.149 49.56 406.629 49.64V40.76C406.629 37.64 408.256 35.52 411.509 34.4C413.162 33.8133 414.976 33.52 416.949 33.52C418.922 33.52 420.642 33.7067 422.109 34.08C423.576 34.4267 424.922 34.9733 426.149 35.72C427.402 36.44 428.389 37.44 429.109 38.72C429.829 40 430.189 41.48 430.189 43.16V47.2H422.429L420.429 44.8V41.92L420.389 41.28C420.149 41.2 419.802 41.16 419.349 41.16C417.376 41.16 416.389 42.2133 416.389 44.32V49.68L418.269 51.92V54.8C416.696 54.8533 415.909 55.3867 415.909 56.4V56.72C416.336 56.8533 416.842 56.92 417.429 56.92C419.402 56.92 420.549 56.2133 420.869 54.8H420.589L418.589 52.4V49.52C419.496 49.52 420.162 49.5333 420.589 49.56C421.629 49.64 422.482 50.08 423.149 50.88ZM408.749 50.88C409.016 50.6667 409.336 50.3333 409.709 49.88H410.749C411.069 50.3867 411.389 50.72 411.709 50.88C412.109 50.3733 412.629 50.0133 413.269 49.8V41.88C413.269 40.4933 413.629 39.4267 414.349 38.68C415.069 37.9333 416.082 37.56 417.389 37.56C418.696 37.56 419.722 37.9333 420.469 38.68C421.216 39.4 421.589 40.4667 421.589 41.88V43.68H427.069V40.84C427.069 39.3733 426.562 38.16 425.549 37.2C424.562 36.24 423.376 35.5867 421.989 35.24C420.602 34.8667 419.176 34.68 417.709 34.68C416.242 34.68 414.962 34.7867 413.869 35C412.802 35.2133 411.789 35.5467 410.829 36C409.896 36.4533 409.149 37.0933 408.589 37.92C408.029 38.7467 407.749 39.72 407.749 40.84V50.04C408.096 50.2267 408.429 50.5067 408.749 50.88ZM427.069 55.24V54.88C427.069 52.6133 427.936 51.48 429.669 51.48V50.52C428.576 50.52 427.762 50.7867 427.229 51.32C426.962 51.5867 426.696 51.9333 426.429 52.36C425.869 52.2533 425.282 51.8 424.669 51C424.189 51.6933 423.589 52.1467 422.869 52.36C422.522 51.8 422.136 51.3733 421.709 51.08C421.309 50.7867 420.976 50.6267 420.709 50.6C420.469 50.5467 420.122 50.52 419.669 50.52V51.48C420.496 51.48 421.096 51.7467 421.469 52.28C421.842 52.8133 422.029 53.32 422.029 53.8C422.029 56.6267 420.496 58.04 417.429 58.04C414.362 58.04 412.829 56.6267 412.829 53.8C412.829 53.2933 413.016 52.7867 413.389 52.28C413.762 51.7467 414.362 51.48 415.189 51.48V50.52C414.709 50.52 414.336 50.5467 414.069 50.6C413.829 50.6267 413.509 50.7867 413.109 51.08C412.709 51.3467 412.336 51.7733 411.989 52.36C411.349 52.2533 410.749 51.8 410.189 51C409.656 51.6933 409.069 52.1467 408.429 52.36C408.082 51.8 407.709 51.3733 407.309 51.08C406.909 50.7867 406.576 50.6267 406.309 50.6C406.042 50.5467 405.669 50.52 405.189 50.52V51.48C406.922 51.48 407.789 52.6133 407.789 54.88V55.24C407.789 56.7067 408.296 57.92 409.309 58.88C410.322 59.84 411.509 60.5067 412.869 60.88C414.256 61.2267 415.776 61.4 417.429 61.4C419.082 61.4 420.589 61.2267 421.949 60.88C423.336 60.5067 424.536 59.84 425.549 58.88C426.562 57.92 427.069 56.7067 427.069 55.24Z" fill="white"/>
<path d="M450.687 42.04V49.52H451.007L453.007 51.92V54.84C451.967 54.84 451.287 55.0267 450.967 55.4C450.674 55.7733 450.527 56.3733 450.527 57.2V57.8C450.714 57.8 450.874 57.6933 451.007 57.48L452.127 58.2L454.127 60.6C453.967 61.8533 453.514 62.8 452.767 63.44C452.02 64.08 451.114 64.4 450.047 64.4C449.007 64.4 447.98 64.04 446.967 63.32C445.954 64.04 444.9 64.4 443.807 64.4C442.74 64.4 441.514 63.76 440.127 62.48C438.74 61.2 437.967 59.7733 437.807 58.2L438.927 57.48C439.034 57.72 439.287 57.84 439.687 57.84C440.834 57.84 441.407 56.84 441.407 54.84H440.927L438.927 52.44V49.52C440.02 49.52 440.794 49.56 441.247 49.64V42.04H440.087V46.16H435.447L433.447 43.76V34H456.487L458.487 36.4V46.16H454.087L452.087 43.76V42.04H450.687ZM443.487 50.84C443.754 50.68 444.074 50.36 444.447 49.88H445.487C445.834 50.36 446.154 50.68 446.447 50.84C446.714 50.4667 447.06 50.1733 447.487 49.96V38.52H453.087V42.64H455.367V35.12H434.567V42.64H436.967V38.52H442.447V49.96C442.82 50.1467 443.167 50.44 443.487 50.84ZM445.087 59.56C446.047 60.3867 447.1 60.8 448.247 60.8C449.42 60.8 450.274 60.1333 450.807 58.8C450.62 58.9067 450.407 58.96 450.167 58.96C448.3 58.96 447.367 57.5867 447.367 54.84C447.367 52.6 448.247 51.48 450.007 51.48V50.48C449.5 50.48 449.114 50.5067 448.847 50.56C448.58 50.5867 448.247 50.7467 447.847 51.04C447.447 51.3333 447.087 51.7733 446.767 52.36C446.127 52.2267 445.527 51.76 444.967 50.96C444.407 51.68 443.807 52.1467 443.167 52.36C442.82 51.7733 442.447 51.3333 442.047 51.04C441.647 50.7467 441.314 50.5867 441.047 50.56C440.78 50.5067 440.407 50.48 439.927 50.48V51.48C441.687 51.48 442.567 52.6 442.567 54.84C442.567 56.8667 442.14 58.1333 441.287 58.64C440.887 58.8533 440.38 58.96 439.767 58.96L439.127 58.8C439.66 60.1333 440.5 60.8 441.647 60.8C442.82 60.8 443.887 60.3867 444.847 59.56H445.087Z" fill="white"/>
<path d="M482.986 55.56L483.066 57.24C483.066 59.7467 482.2 61.64 480.466 62.92C478.76 64.2267 476.733 64.88 474.386 64.88C473.666 64.88 472.946 64.7867 472.226 64.6C471.506 64.4133 470.96 64.2133 470.586 64C470.213 63.8133 469.76 63.56 469.226 63.24C468.72 62.9467 468.44 62.7867 468.386 62.76L467.426 62.2C466.866 62.76 466.12 63.2667 465.186 63.72C464.28 64.1733 463.466 64.4 462.746 64.4L460.746 62L460.026 60.88C460.506 60.6133 460.746 60.0267 460.746 59.12V51.92H465.386L467.386 54.32V55.56L467.546 56.72C468.106 57.0667 468.973 57.24 470.146 57.24C471.346 57.24 472.08 56.68 472.346 55.56C471.92 55.8 471.626 56 471.466 56.16L467.586 51.52L468.306 50.92C467.133 50.2 466.2 49.6 465.506 49.12C464.84 48.6133 464.04 47.92 463.106 47.04C461.24 45.2267 460.306 43.1467 460.306 40.8C460.306 38.4267 461.2 36.6267 462.986 35.4C464.8 34.1467 466.893 33.52 469.266 33.52C470.546 33.52 471.693 33.72 472.706 34.12C473.72 34.4933 474.413 34.88 474.786 35.28L475.346 35.84V34H480.306L482.306 36.4V45.36H477.626L475.626 42.96L475.066 41.12C474.613 40.88 474.08 40.76 473.466 40.76C472.853 40.76 472.333 40.9733 471.906 41.4C471.506 41.8267 471.306 42.4133 471.306 43.16L471.346 43.52C471.426 43.6 472.16 43.9733 473.546 44.64C474.96 45.28 476.306 46.0533 477.586 46.96C478.866 47.84 479.666 48.72 479.986 49.6C480.386 49.5467 481.106 49.52 482.146 49.52L484.146 51.92V54.84C483.373 54.84 482.986 55.08 482.986 55.56ZM461.506 40.48C461.506 41.7867 461.84 42.96 462.506 44C463.2 45.0133 463.946 45.7867 464.746 46.32C465.546 46.8267 466.573 47.4267 467.826 48.12C469.08 48.8133 469.96 49.3467 470.466 49.72C470.946 49.5867 471.426 49.52 471.906 49.52C472.946 49.52 473.946 49.92 474.906 50.72L475.626 49.92H476.626C476.973 50.3733 477.28 50.68 477.546 50.84C477.866 50.44 478.266 50.1333 478.746 49.92C478.186 48.9333 477.28 48.04 476.026 47.24C474.773 46.4133 473.573 45.7733 472.426 45.32C471.306 44.8667 470.293 44.2533 469.386 43.48C468.506 42.68 468.066 41.7733 468.066 40.76C468.066 40.0933 468.213 39.48 468.506 38.92C469.12 37.8 470.133 37.24 471.546 37.24C473.893 37.24 475.56 38.7733 476.546 41.84H479.386V35.12H476.346V37.92H476.106C474.373 35.76 472.106 34.68 469.306 34.68C467.2 34.68 465.373 35.2133 463.826 36.28C462.28 37.32 461.506 38.72 461.506 40.48ZM479.906 54.92L479.826 53.16C479.826 52.04 480.266 51.48 481.146 51.48V50.48C480.64 50.48 480.253 50.5067 479.986 50.56C479.746 50.5867 479.426 50.7467 479.026 51.04C478.626 51.3333 478.253 51.7733 477.906 52.36C477.266 52.2533 476.68 51.8 476.146 51C475.64 51.6133 475.106 52 474.546 52.16C473.8 51.04 472.786 50.48 471.506 50.48C470.68 50.48 469.866 50.8533 469.066 51.6L469.666 52.36C470.173 51.96 470.693 51.76 471.226 51.76C471.76 51.76 472.226 51.92 472.626 52.24C473.053 52.56 473.306 52.9333 473.386 53.36C473.493 53.7867 473.546 54.2667 473.546 54.8C473.546 55.3067 473.466 55.8 473.306 56.28C473.173 56.76 472.826 57.24 472.266 57.72C471.706 58.1733 470.973 58.4 470.066 58.4C468.546 58.4 467.24 57.9467 466.146 57.04C465.053 56.1333 464.426 54.8133 464.266 53.08H461.906V58.72C461.906 59.8133 461.773 60.48 461.506 60.72C462.013 60.64 462.693 60.3333 463.546 59.8C464.426 59.2667 464.973 58.8 465.186 58.4C465.56 58.64 466.093 58.9733 466.786 59.4C468.893 60.7067 470.733 61.36 472.306 61.36C474.44 61.36 476.24 60.8133 477.706 59.72C479.173 58.6 479.906 57 479.906 54.92Z" fill="white"/>
</svg>
